<?xml version="1.0" encoding="iso-8859-1"?>
<!-- Generator: Adobe Illustrator 19.0.0, SVG Export Plug-In . SVG Version: 6.00 Build 0)  -->
<svg version="1.1" id="Layer_1" xmlns="http://www.w3.org/2000/svg" xmlns:xlink="http://www.w3.org/1999/xlink" x="0px" y="0px"
	 viewBox="0 0 512 512" style="enable-background:new 0 0 512 512;" xml:space="preserve">
<path style="fill:#B3B3B3;" d="M434.44,110.654C401.18,45.876,334.359,0.003,255.98,0v101.329
	c55.478,0.004,100.593,43.67,100.594,99.15c0.001,54.805-45.49,102.048-100.594,102.052V512
	c70.645-73.617,151.953-154.542,187.529-251.428C461.297,212.121,457.979,156.5,434.44,110.654z"/>
<path style="fill:#979797;" d="M68.492,260.572C104.066,357.458,185.374,438.383,256.02,512V302.531
	c-55.104-0.004-100.595-47.247-100.594-102.052c0.001-55.479,45.116-99.146,100.594-99.15V0
	c-78.379,0.003-145.2,45.876-178.46,110.654C54.021,156.5,50.703,212.121,68.492,260.572z"/>
<path style="fill:#FFDA44;" d="M142.864,311.908c-62.484-62.483-62.484-163.79,0-226.273c62.483-62.483,163.791-62.483,226.274,0
	c0,0.02,42.48,143.786-20.003,206.271C286.651,354.389,142.908,311.952,142.864,311.908z"/>
<path style="fill:#FF9811;" d="M142.864,311.908c62.483,62.483,163.791,62.483,226.274,0c62.484-62.483,62.484-163.79,0-226.273
	L142.864,311.908z"/>
<path style="fill:#F0F0F0;" d="M346.511,129.206v-27.825h-53.334l-4.076,4.073c-14.493,14.494-12.054,31.401-10.274,43.746
	c1.651,11.452,1.849,15.84-2.41,20.098c-4.258,4.258-8.646,4.061-20.097,2.409c-12.345-1.779-29.252-4.217-43.745,10.275
	c-14.492,14.494-12.052,31.401-10.272,43.744c1.652,11.45,1.85,15.838-2.406,20.094c-4.258,4.256-8.646,4.059-20.094,2.409
	c-4.464-0.645-9.081-1.311-14.007-1.364l-0.305,27.825c3.084,0.033,6.608,0.542,10.339,1.079c4.417,0.638,9.418,1.36,14.684,1.36
	c5.457,0,11.199-0.779,16.868-3.227v22.262h41.739v-20.868h-20.869v-13.913h13.913v-20.87h-11.12
	c0.528-6.752-0.4-13.217-1.199-18.758c-1.652-11.45-1.85-15.838,2.406-20.094c4.259-4.258,8.645-4.061,20.097-2.411
	c8.995,1.298,20.413,2.935,31.554-1.873v22.267h41.739v-20.87h-20.869v-13.913h13.913v-20.871h-11.119
	c0.528-6.752-0.399-13.217-1.199-18.761c-1.154-8.002-1.599-12.555-0.308-16.022L346.511,129.206L346.511,129.206z"/>
<path style="fill:#C7C7C7;" d="M255.928,21.707c-73.745,0-141.451,47.552-166.61,116.806
	c-25.343,69.773-3.142,149.836,53.974,197.071c57.236,47.338,140.369,53.625,203.978,15.148
	c63.626-38.49,97.228-114.681,82.271-187.573C414.888,91.771,355.517,35.121,283.472,23.843
	C274.361,22.416,265.141,21.707,255.928,21.707 M398.59,263.184c-30.241,67.009-105.732,104.802-177.479,88.399
	c-55.215-12.621-100.384-55.764-115.778-110.195c-15.749-55.658,1.328-116.804,43.417-156.425
	c45.534-42.867,114.172-54.571,171.321-28.799c68.228,30.767,105.971,108.144,87.651,180.844
	C405.459,245.986,402.37,254.739,398.59,263.184C396.502,267.81,400.132,259.739,398.59,263.184"/>
<g>
</g>
<g>
</g>
<g>
</g>
<g>
</g>
<g>
</g>
<g>
</g>
<g>
</g>
<g>
</g>
<g>
</g>
<g>
</g>
<g>
</g>
<g>
</g>
<g>
</g>
<g>
</g>
<g>
</g>
</svg>
