<?xml version="1.0" encoding="iso-8859-1"?>
<!-- Generator: Adobe Illustrator 19.0.0, SVG Export Plug-In . SVG Version: 6.00 Build 0)  -->
<svg version="1.1" id="Layer_1" xmlns="http://www.w3.org/2000/svg" xmlns:xlink="http://www.w3.org/1999/xlink" x="0px" y="0px"
	 viewBox="0 0 512 512" style="enable-background:new 0 0 512 512;" xml:space="preserve">
<path style="fill:#B3B3B3;" d="M434.439,110.654C401.179,45.876,334.359,0.003,255.98,0v101.329
	c55.478,0.004,100.593,43.67,100.595,99.15c0,54.805-45.491,102.048-100.595,102.052V512
	c70.646-73.617,151.953-154.542,187.529-251.428C461.298,212.121,457.979,156.5,434.439,110.654z"/>
<path style="fill:#979797;" d="M68.492,260.572C104.067,357.458,185.374,438.383,256.02,512V302.531
	c-55.103-0.004-100.595-47.247-100.595-102.052c0.002-55.479,45.117-99.146,100.595-99.15V0
	c-78.379,0.003-145.199,45.876-178.46,110.654C54.021,156.5,50.702,212.121,68.492,260.572z"/>
<circle style="fill:#F0F0F0;" cx="256" cy="198.773" r="159.968"/>
<path d="M117.459,118.787c-7.22,12.505-12.547,25.579-16.094,38.894l267.536,154.464c9.759-9.731,18.42-20.881,25.638-33.386
	L117.459,118.787z"/>
<g>
	<path style="fill:#FFDA44;" d="M335.986,60.231c-64.01-36.955-142.934-24.638-192.889,25.169l267.537,154.462
		C428.792,171.698,399.996,97.187,335.986,60.231z"/>
	<path style="fill:#FFDA44;" d="M176.014,337.312c64.01,36.957,142.936,24.64,192.889-25.167L101.365,157.681
		C83.209,225.847,112.004,300.358,176.014,337.312z"/>
</g>
<g>
	<path style="fill:#D80027;" d="M301.211,181.386c0,24.969-20.242,45.209-45.211,45.209s-45.211-20.24-45.211-45.209
		c0-7.786,1.969-15.11,5.435-21.506c-9.81,10.033-15.867,23.753-15.867,38.894c0,30.732,24.912,55.644,55.643,55.644
		s55.643-24.912,55.643-55.644c0-15.141-6.055-28.861-15.867-38.894C299.242,166.275,301.211,173.6,301.211,181.386z"/>
	<rect x="245.568" y="129.216" style="fill:#D80027;" width="20.867" height="104.331"/>
	<path style="fill:#D80027;" d="M290.777,150.085h-69.554c0,4.802,4.183,8.693,8.985,8.693h-0.289c0,4.802,3.892,8.693,8.693,8.693
		c0,4.804,3.893,8.695,8.694,8.695h17.388c4.802,0,8.694-3.891,8.694-8.695c4.802,0,8.694-3.891,8.694-8.693h-0.289
		C286.594,158.779,290.777,154.887,290.777,150.085z"/>
	<rect x="207.307" y="240.501" style="fill:#D80027;" width="97.376" height="20.867"/>
	<rect x="276.864" y="247.456" style="fill:#D80027;" width="41.728" height="20.867"/>
	<rect x="193.397" y="247.456" style="fill:#D80027;" width="41.728" height="20.867"/>
</g>
<path style="fill:#C7C7C7;" d="M255.929,21.707c-73.745,0-141.451,47.552-166.61,116.806
	c-25.343,69.773-3.142,149.836,53.974,197.071c57.236,47.338,140.369,53.625,203.978,15.148
	c63.626-38.49,97.228-114.681,82.271-187.573C414.889,91.771,355.517,35.121,283.472,23.843
	C274.361,22.416,265.141,21.707,255.929,21.707 M398.59,263.184c-30.241,67.009-105.732,104.802-177.479,88.399
	c-55.215-12.621-100.384-55.764-115.778-110.195c-15.749-55.658,1.328-116.804,43.417-156.425
	c45.534-42.867,114.172-54.571,171.321-28.799c68.228,30.767,105.971,108.144,87.651,180.844
	C405.459,245.986,402.37,254.739,398.59,263.184C396.502,267.81,400.132,259.739,398.59,263.184"/>
<g>
</g>
<g>
</g>
<g>
</g>
<g>
</g>
<g>
</g>
<g>
</g>
<g>
</g>
<g>
</g>
<g>
</g>
<g>
</g>
<g>
</g>
<g>
</g>
<g>
</g>
<g>
</g>
<g>
</g>
</svg>
