<?xml version="1.0" encoding="iso-8859-1"?>
<!-- Generator: Adobe Illustrator 19.0.0, SVG Export Plug-In . SVG Version: 6.00 Build 0)  -->
<svg version="1.1" id="Layer_1" xmlns="http://www.w3.org/2000/svg" xmlns:xlink="http://www.w3.org/1999/xlink" x="0px" y="0px"
	 viewBox="0 0 512 512" style="enable-background:new 0 0 512 512;" xml:space="preserve">
<path style="fill:#B3B3B3;" d="M434.439,110.654C401.179,45.876,334.359,0.003,255.98,0v101.329
	c55.478,0.004,100.593,43.67,100.595,99.15c0,54.805-45.491,102.048-100.595,102.052V512
	c70.646-73.617,151.953-154.542,187.529-251.428C461.298,212.121,457.979,156.5,434.439,110.654z"/>
<path style="fill:#979797;" d="M68.492,260.572C104.067,357.458,185.374,438.383,256.02,512V302.531
	c-55.103-0.004-100.595-47.247-100.595-102.052c0.002-55.479,45.117-99.146,100.595-99.15V0
	c-78.379,0.003-145.199,45.876-178.46,110.654C54.021,156.5,50.702,212.121,68.492,260.572z"/>
<circle style="fill:#F0F0F0;" cx="256" cy="198.773" r="160"/>
<g>
	<path style="fill:#0052B4;" d="M256,358.773c48.495,0,91.946-21.578,121.287-55.652H134.713
		C164.054,337.196,207.505,358.773,256,358.773z"/>
	<path style="fill:#0052B4;" d="M416,198.773c0-88.367-71.634-160-160-160s-160,71.633-160,160c0,14.442,1.925,28.431,5.511,41.74
		h308.977C414.075,227.204,416,213.215,416,198.773z"/>
</g>
<path style="fill:#D80027;" d="M108.717,261.381c3.086,7.248,6.69,14.217,10.767,20.868h273.034
	c4.076-6.652,7.681-13.621,10.766-20.868H108.717L108.717,261.381z"/>
<g>
	<polygon style="fill:#FFDA44;" points="210.369,209.206 212.958,217.179 221.341,217.179 214.56,222.107 217.15,230.077 
		210.369,225.15 203.587,230.077 206.178,222.107 199.398,217.179 207.779,217.179 	"/>
	<polygon style="fill:#FFDA44;" points="210.369,313.554 212.958,321.527 221.341,321.527 214.56,326.454 217.15,334.425 
		210.369,329.498 203.587,334.425 206.178,326.454 199.398,321.527 207.779,321.527 	"/>
	<polygon style="fill:#FFDA44;" points="161.796,278.265 164.385,286.238 172.768,286.238 165.987,291.163 168.577,299.136 
		161.796,294.208 155.014,299.136 157.606,291.163 150.825,286.238 159.206,286.238 	"/>
	<polygon style="fill:#FFDA44;" points="180.349,219.642 182.939,227.613 191.321,227.613 184.541,232.54 187.131,240.512 
		180.349,235.585 173.568,240.512 176.158,232.54 169.377,227.613 177.759,227.613 	"/>
	<polygon style="fill:#FFDA44;" points="150.825,252.468 159.205,252.468 161.796,244.498 164.385,252.468 172.768,252.468 
		165.987,257.396 168.577,265.366 161.796,260.442 155.014,265.366 157.604,257.394 	"/>
	<polygon style="fill:#FFDA44;" points="173.569,322.467 176.158,314.498 169.377,309.571 177.758,309.571 180.349,301.598 
		182.94,309.569 191.321,309.569 184.54,314.496 187.13,322.469 180.348,317.541 	"/>
	<polygon style="fill:#FFDA44;" points="258.923,278.265 256.334,286.238 247.952,286.238 254.732,291.163 252.142,299.136 
		258.923,294.208 265.705,299.136 263.114,291.163 269.894,286.238 261.513,286.238 	"/>
	<polygon style="fill:#FFDA44;" points="240.371,219.642 237.781,227.613 229.398,227.613 236.179,232.54 233.589,240.512 
		240.371,235.585 247.152,240.512 244.56,232.54 251.342,227.613 242.96,227.613 	"/>
	<polygon style="fill:#FFDA44;" points="269.894,252.468 261.515,252.468 258.924,244.498 256.334,252.468 247.952,252.468 
		254.732,257.396 252.142,265.366 258.924,260.442 265.705,265.366 263.115,257.394 	"/>
	<polygon style="fill:#FFDA44;" points="247.151,322.467 244.56,314.498 251.342,309.571 242.96,309.571 240.371,301.598 
		237.779,309.569 229.398,309.569 236.179,314.496 233.589,322.469 240.371,317.541 	"/>
</g>
<path style="fill:#C7C7C7;" d="M255.929,21.707c-73.745,0-141.451,47.552-166.61,116.806
	c-25.343,69.773-3.142,149.836,53.974,197.071c57.236,47.338,140.369,53.625,203.978,15.148
	c63.626-38.49,97.228-114.681,82.271-187.573C414.889,91.771,355.517,35.121,283.472,23.843
	C274.361,22.416,265.141,21.707,255.929,21.707 M398.59,263.184c-30.241,67.009-105.732,104.802-177.479,88.399
	c-55.215-12.621-100.384-55.764-115.778-110.195c-15.749-55.658,1.328-116.804,43.417-156.425
	c45.534-42.867,114.172-54.571,171.321-28.799c68.228,30.767,105.971,108.144,87.651,180.844
	C405.459,245.986,402.37,254.739,398.59,263.184C396.502,267.81,400.132,259.739,398.59,263.184"/>
<g>
</g>
<g>
</g>
<g>
</g>
<g>
</g>
<g>
</g>
<g>
</g>
<g>
</g>
<g>
</g>
<g>
</g>
<g>
</g>
<g>
</g>
<g>
</g>
<g>
</g>
<g>
</g>
<g>
</g>
</svg>
