<?xml version="1.0" encoding="iso-8859-1"?>
<!-- Generator: Adobe Illustrator 19.0.0, SVG Export Plug-In . SVG Version: 6.00 Build 0)  -->
<svg version="1.1" id="Layer_1" xmlns="http://www.w3.org/2000/svg" xmlns:xlink="http://www.w3.org/1999/xlink" x="0px" y="0px"
	 viewBox="0 0 512 512" style="enable-background:new 0 0 512 512;" xml:space="preserve">
<path style="fill:#B3B3B3;" d="M434.44,110.654C401.18,45.876,334.359,0.003,255.98,0v101.329
	c55.478,0.004,100.593,43.67,100.594,99.15c0.001,54.805-45.491,102.048-100.594,102.052V512
	c70.645-73.617,151.953-154.542,187.529-251.428C461.297,212.121,457.979,156.5,434.44,110.654z"/>
<path style="fill:#979797;" d="M68.492,260.572C104.067,357.458,185.374,438.383,256.02,512V302.531
	c-55.104-0.004-100.595-47.247-100.594-102.052c0.001-55.479,45.116-99.146,100.594-99.15V0
	c-78.379,0.003-145.2,45.876-178.46,110.654C54.021,156.5,50.703,212.121,68.492,260.572z"/>
<circle style="fill:#F0F0F0;" cx="256" cy="198.773" r="160"/>
<path d="M256,38.773c-44.182,0-84.182,17.908-113.137,46.863L256,198.773V38.773z"/>
<path d="M96,198.773c0,44.183,17.909,84.183,46.863,113.137L256,198.773H96z"/>
<path d="M256,358.773c44.182,0,84.182-17.908,113.137-46.863L256,198.773V358.773z"/>
<path d="M416,198.773c0-44.183-17.909-84.183-46.863-113.137L256,198.773H416z"/>
<polygon style="fill:#FFDA44;" points="200.348,150.077 256,157.036 311.652,150.077 311.652,116.686 289.391,127.817 256,94.425 
	222.609,127.817 200.348,116.686 "/>
<path style="fill:#D80027;" d="M256,282.25c-30.687,0-55.652-24.964-55.652-55.652v-55.648l20.869-20.87h69.566l20.869,20.87v55.648
	C311.652,257.285,286.687,282.25,256,282.25z"/>
<path style="fill:#F0F0F0;" d="M256,261.381c-19.179,0-34.783-15.604-34.783-34.783v-55.65h69.566v55.65
	C290.783,245.777,275.179,261.381,256,261.381z"/>
<g>
	<rect x="200.352" y="150.08" style="fill:#FFDA44;" width="20.869" height="20.868"/>
	<rect x="290.784" y="150.08" style="fill:#FFDA44;" width="20.869" height="20.868"/>
	<rect x="290.784" y="195.296" style="fill:#FFDA44;" width="20.869" height="20.87"/>
	<rect x="200.352" y="195.296" style="fill:#FFDA44;" width="20.869" height="20.87"/>
	<path style="fill:#FFDA44;" d="M256,261.381c-3.634,0-7.139-0.562-10.435-1.602v21.477c3.382,0.644,6.867,0.994,10.435,0.994
		c3.567,0,7.052-0.35,10.435-0.994v-21.477C263.139,260.819,259.634,261.381,256,261.381z"/>
	<path style="fill:#FFDA44;" d="M221.683,232.245l-16.656,16.654c2.887,6.575,7.008,12.487,12.07,17.444l14.75-14.75
		C226.585,246.507,222.918,239.781,221.683,232.245z"/>
	<path style="fill:#FFDA44;" d="M306.973,248.902l-16.656-16.656c-1.236,7.535-4.902,14.26-10.165,19.348l14.75,14.75
		C299.965,261.388,304.085,255.475,306.973,248.902z"/>
</g>
<g>
	<path style="fill:#0052B4;" d="M249.044,182.542v11.594c0,3.842,3.114,6.956,6.956,6.956c3.842,0,6.956-3.115,6.956-6.956v-11.594
		H249.044z"/>
	<path style="fill:#0052B4;" d="M249.044,228.918v11.594c0,3.842,3.114,6.956,6.956,6.956c3.842,0,6.956-3.115,6.956-6.956v-11.594
		H249.044z"/>
	<path style="fill:#0052B4;" d="M269.914,205.729v11.596c0,3.84,3.115,6.956,6.957,6.956c3.842,0,6.956-3.117,6.956-6.956v-11.596
		H269.914z"/>
	<path style="fill:#0052B4;" d="M249.044,205.729v11.596c0,3.84,3.114,6.956,6.956,6.956c3.842,0,6.956-3.117,6.956-6.956v-11.596
		H249.044z"/>
	<path style="fill:#0052B4;" d="M228.174,205.729v11.596c0,3.84,3.115,6.956,6.956,6.956c3.842,0,6.957-3.117,6.957-6.956v-11.596
		H228.174z"/>
</g>
<path style="fill:#C7C7C7;" d="M255.928,21.707c-73.745,0-141.451,47.552-166.61,116.806
	c-25.343,69.773-3.142,149.836,53.974,197.071c57.236,47.338,140.369,53.625,203.978,15.148
	c63.626-38.49,97.228-114.681,82.271-187.573C414.888,91.771,355.517,35.121,283.472,23.843
	C274.361,22.416,265.141,21.707,255.928,21.707 M398.59,263.184c-30.241,67.009-105.732,104.802-177.479,88.399
	c-55.215-12.621-100.384-55.764-115.778-110.195c-15.749-55.658,1.328-116.804,43.417-156.425
	c45.534-42.867,114.172-54.571,171.321-28.799c68.228,30.767,105.971,108.144,87.651,180.844
	C405.459,245.986,402.37,254.739,398.59,263.184C396.502,267.81,400.132,259.739,398.59,263.184"/>
<g>
</g>
<g>
</g>
<g>
</g>
<g>
</g>
<g>
</g>
<g>
</g>
<g>
</g>
<g>
</g>
<g>
</g>
<g>
</g>
<g>
</g>
<g>
</g>
<g>
</g>
<g>
</g>
<g>
</g>
</svg>
