<?xml version="1.0" encoding="iso-8859-1"?>
<!-- Generator: Adobe Illustrator 19.0.0, SVG Export Plug-In . SVG Version: 6.00 Build 0)  -->
<svg version="1.1" id="Layer_1" xmlns="http://www.w3.org/2000/svg" xmlns:xlink="http://www.w3.org/1999/xlink" x="0px" y="0px"
	 viewBox="0 0 512 512" style="enable-background:new 0 0 512 512;" xml:space="preserve">
<path style="fill:#B3B3B3;" d="M434.44,110.654C401.18,45.876,334.359,0.003,255.98,0v101.328
	c55.478,0.004,100.593,43.673,100.594,99.151c0.001,54.805-45.491,102.049-100.594,102.051V512
	c70.645-73.618,151.953-154.543,187.529-251.428C461.297,212.119,457.979,156.501,434.44,110.654z"/>
<path style="fill:#979797;" d="M68.492,260.572C104.067,357.457,185.374,438.382,256.02,512V302.53
	c-55.104-0.002-100.595-47.246-100.594-102.051c0.001-55.478,45.116-99.147,100.594-99.151V0
	c-78.379,0.003-145.2,45.876-178.46,110.654C54.021,156.501,50.703,212.119,68.492,260.572z"/>
<circle style="fill:#F0F0F0;" cx="255.285" cy="198.773" r="160"/>
<path style="fill:#D80027;" d="M415.282,198.305H241.839c-34.435,34.437-55.259,61.023-76.522,82.286l90.435,8.15l140.334-13.913
	c12.246-22.623,19.202-48.527,19.202-76.059C415.289,198.613,415.282,198.462,415.282,198.305z"/>
<path style="fill:#FFDA44;" d="M165.317,121.785h230.257C368.364,72.305,315.745,38.77,255.287,38.77
	c-44.066,0-83.964,17.819-112.897,46.64L165.317,121.785z"/>
<path style="fill:#0052B4;" d="M172.274,274.828c-14.384,14.383-19.942,26.435-30.35,36.842c28.972,29.091,69.062,47.1,113.363,47.1
	c60.835,0,113.738-33.954,140.798-83.941H172.274z"/>
<path style="fill:#6DA544;" d="M142.151,85.17c-62.484,62.483-62.484,163.79,0,226.273c25.82-25.821,50.653-50.652,113.137-113.137
	L142.151,85.17z"/>
<g>
	<path style="fill:#F0F0F0;" d="M137.491,198.305c0-23.311,16.383-42.785,38.261-47.563c-3.363-0.734-6.851-1.132-10.435-1.132
		c-26.895,0-48.695,21.801-48.695,48.693c0,26.896,21.801,48.695,48.695,48.695c3.584,0,7.072-0.398,10.435-1.132
		C153.874,241.091,137.491,221.618,137.491,198.305z"/>
	<polygon style="fill:#F0F0F0;" points="175.215,156.567 177.805,164.539 186.187,164.539 179.406,169.466 181.997,177.437 
		175.215,172.51 168.434,177.437 171.024,169.466 164.243,164.539 172.624,164.539 	"/>
	<polygon style="fill:#F0F0F0;" points="175.215,177.437 177.805,185.407 186.187,185.407 179.406,190.335 181.997,198.305 
		175.215,193.38 168.434,198.305 171.024,190.335 164.243,185.407 172.624,185.407 	"/>
	<polygon style="fill:#F0F0F0;" points="175.215,198.305 177.805,206.278 186.187,206.278 179.406,211.205 181.997,219.177 
		175.215,214.249 168.434,219.177 171.024,211.205 164.243,206.278 172.624,206.278 	"/>
	<polygon style="fill:#F0F0F0;" points="175.215,219.177 177.805,227.147 186.187,227.147 179.406,232.074 181.997,240.045 
		175.215,235.118 168.434,240.045 171.024,232.074 164.243,227.147 172.624,227.147 	"/>
</g>
<path style="fill:#C7C7C7;" d="M255.928,21.706c-73.745,0-141.451,47.553-166.61,116.809
	c-25.343,69.773-3.142,149.835,53.974,197.07c57.236,47.338,140.369,53.625,203.978,15.148
	c63.626-38.489,97.228-114.681,82.271-187.573C414.888,91.77,355.517,35.122,283.472,23.843
	C274.361,22.416,265.141,21.706,255.928,21.706 M398.59,263.184c-30.241,67.01-105.732,104.802-177.479,88.399
	c-55.215-12.621-100.384-55.763-115.778-110.195c-15.749-55.659,1.328-116.804,43.417-156.425
	c45.534-42.866,114.172-54.571,171.321-28.799c68.228,30.767,105.971,108.145,87.651,180.845
	C405.459,245.986,402.37,254.739,398.59,263.184C396.502,267.811,400.132,259.739,398.59,263.184"/>
<g>
</g>
<g>
</g>
<g>
</g>
<g>
</g>
<g>
</g>
<g>
</g>
<g>
</g>
<g>
</g>
<g>
</g>
<g>
</g>
<g>
</g>
<g>
</g>
<g>
</g>
<g>
</g>
<g>
</g>
</svg>
