<?xml version="1.0" encoding="iso-8859-1"?>
<!-- Generator: Adobe Illustrator 19.0.0, SVG Export Plug-In . SVG Version: 6.00 Build 0)  -->
<svg version="1.1" id="Layer_1" xmlns="http://www.w3.org/2000/svg" xmlns:xlink="http://www.w3.org/1999/xlink" x="0px" y="0px"
	 viewBox="0 0 512 512" style="enable-background:new 0 0 512 512;" xml:space="preserve">
<path style="fill:#B3B3B3;" d="M434.439,110.654C401.179,45.876,334.359,0.003,255.98,0v101.328
	c55.478,0.004,100.593,43.673,100.595,99.151c0,54.805-45.491,102.049-100.595,102.051V512
	c70.646-73.618,151.953-154.543,187.529-251.428C461.298,212.119,457.979,156.501,434.439,110.654z"/>
<path style="fill:#979797;" d="M68.492,260.572C104.067,357.457,185.374,438.382,256.02,512V302.53
	c-55.103-0.002-100.595-47.246-100.595-102.051c0.002-55.478,45.117-99.147,100.595-99.151V0
	c-78.379,0.003-145.199,45.876-178.46,110.654C54.021,156.501,50.702,212.119,68.492,260.572z"/>
<path style="fill:#0052B4;" d="M416,198.77c0,88.365-71.634,160-160,160s-160-71.635-160-160c0,0.037,160-159.983,160-160
	C344.366,38.77,416,110.403,416,198.77z"/>
<g>
	<path style="fill:#F0F0F0;" d="M256,38.77c-0.01,0-0.018,0-0.027,0H256L256,38.77z"/>
	<path style="fill:#F0F0F0;" d="M255.572,198.77H256c0-0.144,0-0.284,0-0.429C255.857,198.484,255.714,198.626,255.572,198.77z"/>
	<path style="fill:#F0F0F0;" d="M256,122.246c0-28.153,0-46.601,0-83.477h-0.027C167.62,38.784,96,110.414,96,198.77h83.478v-47.006
		l47.007,47.006h29.087c0.143-0.144,0.286-0.286,0.428-0.429c0-10.779,0-20.396,0-29.086l-47.008-47.008H256V122.246z"/>
</g>
<g>
	<path style="fill:#D80027;" d="M176.947,59.638c-25.024,14.25-45.828,35.054-60.077,60.077v79.054h41.739V101.38v-0.002H256
		c0-13.165,0-25.707,0-41.74H176.947z"/>
	<path style="fill:#D80027;" d="M256,179.092l-56.847-56.846h-19.675v0.002l76.521,76.521H256C256,198.77,256,185.203,256,179.092z"
		/>
</g>
<g>
	<path style="fill:#496E2D;" d="M374.26,198.77L374.26,198.77L374.26,198.77z"/>
	<path style="fill:#496E2D;" d="M276.869,198.77L276.869,198.77L276.869,198.77z"/>
</g>
<g>
	<polygon style="fill:#F0F0F0;" points="311.652,198.77 314.612,207.881 324.192,207.881 316.442,213.509 319.403,222.62 
		311.652,216.989 303.903,222.62 306.863,213.509 299.114,207.881 308.691,207.881 	"/>
	<polygon style="fill:#F0F0F0;" points="272.3,215.07 280.835,219.418 287.609,212.645 286.11,222.108 294.644,226.455 
		285.184,227.953 283.685,237.415 279.337,228.88 269.876,230.379 276.65,223.605 	"/>
	<polygon style="fill:#F0F0F0;" points="256,254.421 265.11,251.461 265.11,241.885 270.74,249.632 279.85,246.672 274.22,254.421 
		279.85,262.172 270.74,259.212 265.11,266.961 265.11,257.382 	"/>
	<polygon style="fill:#F0F0F0;" points="272.3,293.774 276.649,285.238 269.876,278.466 279.338,279.964 283.685,271.428 
		285.184,280.891 294.644,282.388 286.11,286.736 287.609,296.199 280.835,289.424 	"/>
	<polygon style="fill:#F0F0F0;" points="311.652,310.074 308.691,300.963 299.113,300.963 306.863,295.332 303.903,286.224 
		311.652,291.853 319.403,286.224 316.442,295.332 324.192,300.963 314.612,300.963 	"/>
	<polygon style="fill:#F0F0F0;" points="351.004,293.774 342.469,289.426 335.696,296.199 337.194,286.736 328.659,282.388 
		338.121,280.891 339.62,271.428 343.967,279.964 353.429,278.466 346.654,285.238 	"/>
	<polygon style="fill:#F0F0F0;" points="367.305,254.421 358.194,257.382 358.194,266.961 352.563,259.212 343.454,262.172 
		349.085,254.421 343.454,246.672 352.563,249.632 358.194,241.885 358.194,251.461 	"/>
	<polygon style="fill:#F0F0F0;" points="351.004,215.07 346.656,223.605 353.429,230.379 343.967,228.88 339.62,237.415 
		338.121,227.953 328.659,226.455 337.194,222.108 335.696,212.645 342.469,219.418 	"/>
</g>
<path style="fill:#C7C7C7;" d="M255.929,21.706c-73.745,0-141.451,47.553-166.61,116.809
	c-25.343,69.773-3.142,149.835,53.974,197.07c57.236,47.338,140.369,53.625,203.978,15.148
	c63.626-38.489,97.228-114.681,82.271-187.573C414.889,91.77,355.517,35.122,283.472,23.843
	C274.361,22.416,265.141,21.706,255.929,21.706 M398.59,263.184c-30.241,67.01-105.732,104.802-177.479,88.399
	c-55.215-12.621-100.384-55.763-115.778-110.195c-15.749-55.659,1.328-116.804,43.417-156.425
	c45.534-42.866,114.172-54.571,171.321-28.799c68.228,30.767,105.971,108.145,87.651,180.845
	C405.459,245.986,402.37,254.739,398.59,263.184C396.502,267.811,400.132,259.739,398.59,263.184"/>
<g>
</g>
<g>
</g>
<g>
</g>
<g>
</g>
<g>
</g>
<g>
</g>
<g>
</g>
<g>
</g>
<g>
</g>
<g>
</g>
<g>
</g>
<g>
</g>
<g>
</g>
<g>
</g>
<g>
</g>
</svg>
