<?xml version="1.0" encoding="iso-8859-1"?>
<!-- Generator: Adobe Illustrator 19.0.0, SVG Export Plug-In . SVG Version: 6.00 Build 0)  -->
<svg version="1.1" id="Layer_1" xmlns="http://www.w3.org/2000/svg" xmlns:xlink="http://www.w3.org/1999/xlink" x="0px" y="0px"
	 viewBox="0 0 512 512" style="enable-background:new 0 0 512 512;" xml:space="preserve">
<path style="fill:#B3B3B3;" d="M434.439,110.654C401.178,45.876,334.359,0.003,255.98,0v101.329
	c55.478,0.004,100.593,43.671,100.595,99.151c0,54.805-45.491,102.048-100.595,102.051V512
	c70.645-73.617,151.953-154.542,187.529-251.428C461.298,212.121,457.979,156.5,434.439,110.654z"/>
<path style="fill:#979797;" d="M68.492,260.572C104.066,357.458,185.374,438.383,256.019,512V302.531
	c-55.104-0.003-100.595-47.246-100.594-102.051c0.001-55.478,45.116-99.147,100.594-99.151V0
	c-78.379,0.003-145.2,45.876-178.46,110.654C54.021,156.5,50.703,212.121,68.492,260.572z"/>
<circle style="fill:#F0F0F0;" cx="256" cy="198.773" r="160"/>
<path style="fill:#6DA544;" d="M193.392,143.12h212.656C383.441,82.192,324.793,38.772,256,38.772
	c-44.183,0-84.18,17.911-113.132,46.868L193.392,143.12z"/>
<path style="fill:#D80027;" d="M193.392,254.425h212.656C383.442,315.353,324.793,358.772,256,358.772
	c-44.183,0-84.18-17.911-113.132-46.868L193.392,254.425z"/>
<path style="fill:#0052B4;" d="M142.862,85.635c-62.483,62.484-62.483,163.791,0,226.275
	c25.821-25.822,50.655-50.654,113.138-113.138L142.862,85.635z"/>
<path style="fill:#DEDDE0;" d="M283.826,170.946v34.782c0,21.3,27.826,27.826,27.826,27.826s27.826-6.527,27.826-27.826v-34.782
	H283.826z"/>
<rect x="304.693" y="199.467" style="fill:#786145;" width="13.909" height="20.174"/>
<path style="fill:#6DA544;" d="M325.566,191.817c0-7.684-6.229-13.914-13.914-13.914c-7.684,0-13.913,6.229-13.913,13.914
	c-3.843,0-6.957,3.114-6.957,6.956c0,3.842,3.115,6.956,6.957,6.956c2.282,0,25.545,0,27.826,0c3.842,0,6.957-3.114,6.957-6.956
	C332.521,194.93,329.407,191.817,325.566,191.817z"/>
<path style="fill:#C7C7C7;" d="M255.927,21.706c-73.745,0-141.451,47.553-166.61,116.807
	c-25.343,69.773-3.142,149.835,53.974,197.07c57.236,47.338,140.369,53.625,203.979,15.148
	c63.626-38.489,97.228-114.681,82.271-187.573C414.888,91.77,355.517,35.12,283.472,23.842
	C274.36,22.416,265.141,21.706,255.927,21.706 M398.59,263.184c-30.241,67.01-105.732,104.802-177.479,88.399
	c-55.215-12.621-100.384-55.764-115.778-110.195c-15.749-55.658,1.328-116.804,43.417-156.425
	c45.535-42.867,114.172-54.571,171.321-28.799c68.228,30.767,105.971,108.144,87.651,180.845
	C405.459,245.986,402.37,254.739,398.59,263.184C396.502,267.811,400.132,259.739,398.59,263.184"/>
<g>
</g>
<g>
</g>
<g>
</g>
<g>
</g>
<g>
</g>
<g>
</g>
<g>
</g>
<g>
</g>
<g>
</g>
<g>
</g>
<g>
</g>
<g>
</g>
<g>
</g>
<g>
</g>
<g>
</g>
</svg>
