<?xml version="1.0" encoding="iso-8859-1"?>
<!-- Generator: Adobe Illustrator 19.0.0, SVG Export Plug-In . SVG Version: 6.00 Build 0)  -->
<svg version="1.1" id="Layer_1" xmlns="http://www.w3.org/2000/svg" xmlns:xlink="http://www.w3.org/1999/xlink" x="0px" y="0px"
	 viewBox="0 0 512 512" style="enable-background:new 0 0 512 512;" xml:space="preserve">
<path style="fill:#B3B3B3;" d="M434.439,110.654C401.178,45.876,334.359,0.003,255.98,0v101.329
	c55.478,0.004,100.593,43.671,100.595,99.15c0,54.805-45.491,102.048-100.595,102.052V512
	c70.645-73.617,151.953-154.542,187.529-251.428C461.298,212.121,457.979,156.5,434.439,110.654z"/>
<path style="fill:#979797;" d="M68.492,260.572C104.066,357.458,185.374,438.383,256.019,512V302.531
	c-55.104-0.004-100.595-47.247-100.594-102.052c0.001-55.478,45.116-99.146,100.594-99.15V0
	c-78.379,0.003-145.2,45.876-178.46,110.654C54.021,156.5,50.703,212.121,68.492,260.572z"/>
<path style="fill:#338AF3;" d="M242.086,184.861c0,0-99.13,127.073-99.223,127.047c28.954,28.955,68.954,46.865,113.137,46.865
	c88.366,0,160-71.635,160-160L242.086,184.861z"/>
<path style="fill:#6DA544;" d="M242.086,198.773c0,0-99.13-113.161-99.223-113.137C171.816,56.682,211.816,38.773,256,38.773
	c88.366,0,160,71.633,160,160H242.086z"/>
<path style="fill:#D80027;" d="M142.863,85.635c-62.484,62.483-62.484,163.79,0,226.275C142.858,311.936,416,198.773,416,198.773
	L142.863,85.635z"/>
<path style="fill:#FFDA44;" d="M179.478,132.686c-30.687,0-55.652,24.964-55.652,55.652v20.868
	c0,30.688,24.965,55.654,55.652,55.654s55.652-24.966,55.652-55.654v-20.868C235.129,157.65,210.165,132.686,179.478,132.686z
	 M214.26,209.206c0,15.546-10.252,28.739-24.348,33.183v-22.748l14.765-14.765l-14.756-14.756l-0.009-5.254v-6.964h-20.869v20.87
	l-14.754,14.754l14.754,14.754v14.109c-14.097-4.444-24.348-17.637-24.348-33.183v-20.868c0-19.179,15.603-34.783,34.782-34.783
	c19.18,0,34.783,15.604,34.783,34.783L214.26,209.206L214.26,209.206z"/>
<path style="fill:#C7C7C7;" d="M255.927,21.707c-73.745,0-141.451,47.552-166.61,116.806
	c-25.343,69.773-3.142,149.836,53.974,197.071c57.236,47.338,140.369,53.625,203.979,15.148
	c63.626-38.49,97.228-114.681,82.271-187.573C414.888,91.771,355.517,35.121,283.472,23.843
	C274.36,22.416,265.141,21.707,255.927,21.707 M398.59,263.184c-30.241,67.009-105.732,104.802-177.479,88.399
	c-55.215-12.621-100.384-55.764-115.778-110.195c-15.749-55.658,1.328-116.804,43.417-156.425
	c45.535-42.867,114.172-54.571,171.321-28.799c68.228,30.767,105.971,108.144,87.651,180.844
	C405.459,245.986,402.37,254.739,398.59,263.184C396.502,267.81,400.132,259.739,398.59,263.184"/>
<g>
</g>
<g>
</g>
<g>
</g>
<g>
</g>
<g>
</g>
<g>
</g>
<g>
</g>
<g>
</g>
<g>
</g>
<g>
</g>
<g>
</g>
<g>
</g>
<g>
</g>
<g>
</g>
<g>
</g>
</svg>
