<?xml version="1.0" encoding="iso-8859-1"?>
<!-- Generator: Adobe Illustrator 19.0.0, SVG Export Plug-In . SVG Version: 6.00 Build 0)  -->
<svg version="1.1" id="Layer_1" xmlns="http://www.w3.org/2000/svg" xmlns:xlink="http://www.w3.org/1999/xlink" x="0px" y="0px"
	 viewBox="0 0 512 512" style="enable-background:new 0 0 512 512;" xml:space="preserve">
<path style="fill:#B3B3B3;" d="M434.439,110.654C401.178,45.876,334.359,0.003,255.98,0v101.329
	c55.478,0.004,100.593,43.671,100.595,99.15c0,54.805-45.491,102.048-100.595,102.052V512
	c70.646-73.617,151.953-154.542,187.529-251.428C461.298,212.121,457.979,156.5,434.439,110.654z"/>
<path style="fill:#979797;" d="M68.492,260.572C104.066,357.458,185.374,438.383,256.019,512V302.531
	c-55.104-0.004-100.595-47.247-100.594-102.052c0.001-55.478,45.116-99.146,100.594-99.15V0
	c-78.379,0.003-145.2,45.876-178.46,110.654C54.021,156.5,50.703,212.121,68.492,260.572z"/>
<path style="fill:#0052B4;" d="M416,198.773c0,88.365-71.634,160-160,160c-88.365,0-160-71.635-160-160c0,0.037,160-159.983,160-160
	C344.366,38.773,416,110.406,416,198.773z"/>
<g>
	<path style="fill:#F0F0F0;" d="M256,38.773c-0.01,0-0.018,0-0.027,0H256L256,38.773z"/>
	<path style="fill:#F0F0F0;" d="M255.571,198.773H256c0-0.144,0-0.284,0-0.429C255.857,198.487,255.714,198.629,255.571,198.773z"/>
	<path style="fill:#F0F0F0;" d="M256,122.25c0-28.153,0-46.601,0-83.477h-0.027C167.619,38.787,96,110.417,96,198.773h83.478
		v-47.006l47.007,47.006h29.086c0.143-0.144,0.286-0.286,0.428-0.429c0-10.779,0-20.396,0-29.086l-47.008-47.008H256V122.25z"/>
</g>
<g>
	<path style="fill:#D80027;" d="M176.947,59.642c-25.024,14.25-45.828,35.054-60.077,60.077v79.054h41.739v-97.389v-0.002H256
		c0-13.165,0-25.707,0-41.74C256,59.642,176.947,59.642,176.947,59.642z"/>
	<path style="fill:#D80027;" d="M256,179.095l-56.846-56.846h-19.676v0.002l76.519,76.521H256C256,198.773,256,185.206,256,179.095z
		"/>
</g>
<polygon style="fill:#FFDA44;" points="353.391,226.598 353.391,233.556 297.738,233.556 297.738,226.598 276.869,226.598 
	276.869,254.425 290.783,254.425 290.783,261.381 360.348,261.381 360.348,254.425 374.26,254.425 374.26,226.598 "/>
<path style="fill:#338AF3;" d="M276.869,122.25v76.523c0,37.275,48.695,48.695,48.695,48.695s48.695-11.421,48.695-48.695V122.25
	H276.869z"/>
<g>
	<path style="fill:#F3F3F3;" d="M325.563,179.329c-12.174,0-12.174,11.13-24.347,11.13c-12.174,0-12.174-11.13-24.347-11.13v19.477
		c12.173,0,12.173,11.132,24.347,11.132c12.173,0,12.173-11.132,24.347-11.132c12.175,0,12.175,11.132,24.349,11.132
		c12.175,0,12.175-11.132,24.35-11.132v-19.477c-12.174,0-12.174,11.13-24.35,11.13
		C337.736,190.459,337.736,179.329,325.563,179.329z"/>
	<path style="fill:#F3F3F3;" d="M325.563,140.337c-12.174,0-12.174,11.132-24.347,11.132c-12.174,0-12.174-11.132-24.347-11.132
		v19.479c12.173,0,12.173,11.13,24.347,11.13c12.173,0,12.173-11.13,24.347-11.13c12.175,0,12.175,11.13,24.349,11.13
		c12.175,0,12.175-11.13,24.35-11.13v-19.479c-12.174,0-12.174,11.132-24.35,11.132
		C337.736,151.469,337.736,140.337,325.563,140.337z"/>
</g>
<path style="fill:#C7C7C7;" d="M255.927,21.707c-73.745,0-141.451,47.552-166.61,116.806
	c-25.343,69.773-3.142,149.836,53.974,197.071c57.236,47.338,140.369,53.625,203.978,15.148
	c63.626-38.49,97.228-114.681,82.271-187.573C414.887,91.771,355.516,35.121,283.471,23.843
	C274.36,22.416,265.141,21.707,255.927,21.707 M398.59,263.184c-30.241,67.009-105.732,104.802-177.479,88.399
	c-55.215-12.621-100.384-55.764-115.778-110.195c-15.749-55.658,1.328-116.804,43.417-156.425
	c45.535-42.867,114.172-54.571,171.321-28.799c68.228,30.767,105.971,108.144,87.651,180.844
	C405.459,245.986,402.37,254.739,398.59,263.184C396.502,267.81,400.132,259.739,398.59,263.184"/>
<g>
</g>
<g>
</g>
<g>
</g>
<g>
</g>
<g>
</g>
<g>
</g>
<g>
</g>
<g>
</g>
<g>
</g>
<g>
</g>
<g>
</g>
<g>
</g>
<g>
</g>
<g>
</g>
<g>
</g>
</svg>
