<?xml version="1.0" encoding="iso-8859-1"?>
<!-- Generator: Adobe Illustrator 19.0.0, SVG Export Plug-In . SVG Version: 6.00 Build 0)  -->
<svg version="1.1" id="Layer_1" xmlns="http://www.w3.org/2000/svg" xmlns:xlink="http://www.w3.org/1999/xlink" x="0px" y="0px"
	 viewBox="0 0 512 512" style="enable-background:new 0 0 512 512;" xml:space="preserve">
<path style="fill:#B3B3B3;" d="M434.439,110.654C401.178,45.876,334.359,0.003,255.98,0v101.329
	c55.478,0.004,100.593,43.671,100.595,99.15c0,54.805-45.491,102.048-100.595,102.052V512
	c70.646-73.617,151.953-154.542,187.529-251.428C461.298,212.121,457.979,156.5,434.439,110.654z"/>
<path style="fill:#979797;" d="M68.492,260.572C104.066,357.458,185.374,438.383,256.019,512V302.531
	c-55.104-0.004-100.595-47.247-100.594-102.052c0.001-55.478,45.116-99.146,100.594-99.15V0
	c-78.379,0.003-145.2,45.876-178.46,110.654C54.021,156.5,50.703,212.121,68.492,260.572z"/>
<path style="fill:#FFDA44;" d="M256,38.773c-14.442,0-28.431,1.925-41.739,5.51l-13.914,154.49l13.913,154.487
	c13.308,3.587,27.298,5.513,41.739,5.513c88.366,0,160-71.635,160-160C416,110.406,344.366,38.773,256,38.773z"/>
<path style="fill:#6DA544;" d="M200.348,198.773l13.913,154.487c13.308,3.587,27.298,5.513,41.739,5.513
	c88.366,0,160-71.635,160-160H200.348z"/>
<g>
	<path style="fill:#D80027;" d="M96,198.773c0,60.645,33.744,113.408,83.478,140.546V58.227C129.744,85.362,96,138.125,96,198.773z"
		/>
	<path style="fill:#D80027;" d="M96,198.773c0,73.923,50.139,136.127,118.261,154.487V44.284C146.138,62.644,96,124.848,96,198.773z
		"/>
</g>
<polygon points="156.46,157.034 166.819,188.918 200.348,188.918 173.223,208.625 183.583,240.512 156.46,220.804 129.335,240.512 
	139.697,208.625 112.573,188.918 146.1,188.918 "/>
<path style="fill:#C7C7C7;" d="M255.927,21.707c-73.745,0-141.451,47.552-166.61,116.806
	c-25.343,69.773-3.142,149.836,53.974,197.071c57.236,47.338,140.369,53.625,203.978,15.148
	c63.626-38.49,97.228-114.681,82.271-187.573C414.887,91.771,355.516,35.121,283.471,23.843
	C274.36,22.416,265.141,21.707,255.927,21.707 M398.59,263.184c-30.241,67.009-105.732,104.802-177.479,88.399
	c-55.215-12.621-100.384-55.764-115.778-110.195c-15.749-55.658,1.328-116.804,43.417-156.425
	c45.535-42.867,114.172-54.571,171.321-28.799c68.228,30.767,105.971,108.144,87.651,180.844
	C405.459,245.986,402.37,254.739,398.59,263.184C396.502,267.81,400.132,259.739,398.59,263.184"/>
<g>
</g>
<g>
</g>
<g>
</g>
<g>
</g>
<g>
</g>
<g>
</g>
<g>
</g>
<g>
</g>
<g>
</g>
<g>
</g>
<g>
</g>
<g>
</g>
<g>
</g>
<g>
</g>
<g>
</g>
</svg>
