<?xml version="1.0" encoding="iso-8859-1"?>
<!-- Generator: Adobe Illustrator 19.0.0, SVG Export Plug-In . SVG Version: 6.00 Build 0)  -->
<svg version="1.1" id="Layer_1" xmlns="http://www.w3.org/2000/svg" xmlns:xlink="http://www.w3.org/1999/xlink" x="0px" y="0px"
	 viewBox="0 0 512 512" style="enable-background:new 0 0 512 512;" xml:space="preserve">
<path style="fill:#B3B3B3;" d="M434.439,110.654C401.179,45.876,334.359,0.003,255.98,0v101.329
	c55.478,0.004,100.593,43.671,100.595,99.15c0,54.805-45.491,102.048-100.595,102.052V512
	c70.646-73.617,151.953-154.542,187.529-251.428C461.298,212.121,457.979,156.5,434.439,110.654z"/>
<path style="fill:#979797;" d="M68.492,260.572C104.067,357.458,185.374,438.383,256.02,512V302.531
	c-55.103-0.004-100.595-47.247-100.595-102.052c0.002-55.478,45.117-99.146,100.595-99.15V0
	c-78.379,0.003-145.199,45.876-178.46,110.654C54.021,156.5,50.702,212.121,68.492,260.572z"/>
<path style="fill:#D80027;" d="M96,198.773c0-88.365,71.634-160,160-160s160,71.635,160,160"/>
<g>
	<polygon style="fill:#FFDA44;" points="311.652,187.571 288.911,198.267 301.021,220.291 276.329,215.567 273.199,240.512 
		256,222.164 238.8,240.512 235.671,215.567 210.979,220.289 223.088,198.267 200.348,187.571 223.088,176.875 210.979,154.852 
		235.67,159.575 238.801,134.631 256,152.977 273.2,134.631 276.329,159.575 301.022,154.852 288.912,176.875 	"/>
	<path style="fill:#FFDA44;" d="M297.74,90.946h-31.305c0-5.76-4.673-10.433-10.435-10.433s-10.435,4.673-10.435,10.433H214.26
		c0,5.764,5.021,10.435,10.783,10.435h-0.348c0,5.762,4.671,10.435,10.434,10.435c0,5.762,4.672,10.435,10.434,10.435h20.87
		c5.761,0,10.434-4.673,10.434-10.435c5.761,0,10.434-4.673,10.434-10.435h-0.348C292.719,101.381,297.74,96.71,297.74,90.946z"/>
</g>
<path style="fill:#F0F0F0;" d="M416,198.773c0,88.365-71.634,160-160,160s-160-71.635-160-160
	C102.956,198.773,416,198.773,416,198.773z"/>
<g>
	<path style="fill:#0052B4;" d="M256,358.773c50.014,0,94.66-22.953,124.001-58.894c-5.277-3.596-8.126-9.412-17.337-9.412
		c-13.333,0-13.333,12.192-26.666,12.192c-13.333,0-13.333-12.192-26.666-12.192c-13.333,0-13.333,12.192-26.668,12.192
		c-13.334,0-13.334-12.192-26.668-12.192c-13.333,0-13.333,12.192-26.667,12.192c-13.331,0-13.331-12.192-26.665-12.192
		c-13.333,0-13.333,12.192-26.669,12.192c-13.333,0-13.333-12.192-26.668-12.192c-9.21,0-12.059,5.814-17.332,9.412
		C161.338,335.821,205.985,358.773,256,358.773z"/>
	<path style="fill:#0052B4;" d="M389.331,219.179c-13.332,0-13.332-12.192-26.667-12.192c-13.333,0-13.333,12.192-26.666,12.192
		c-13.333,0-13.333-12.192-26.666-12.192c-13.333,0-13.333,12.192-26.668,12.192c-13.334,0-13.334-12.192-26.668-12.192
		s-13.333,12.192-26.667,12.192c-13.331,0-13.331-12.192-26.665-12.192s-13.333,12.192-26.669,12.192
		c-13.333,0-13.333-12.192-26.668-12.192c-13.332,0-13.332,12.192-26.665,12.192c-13.262,0-13.339-12.057-26.458-12.186
		c0.369,7.318,1.243,14.505,2.563,21.53c10.628,1.563,11.558,11.989,23.893,11.989c13.332,0,13.332-12.192,26.665-12.192
		c13.334,0,13.334,12.192,26.668,12.192c13.335,0,13.335-12.192,26.669-12.192c13.333,0,13.333,12.192,26.665,12.192
		c13.333,0,13.333-12.192,26.667-12.192s13.333,12.192,26.668,12.192s13.334-12.192,26.668-12.192
		c13.332,0,13.332,12.192,26.666,12.192c13.332,0,13.332-12.192,26.666-12.192c13.334,0,13.334,12.192,26.667,12.192
		c12.338,0,13.268-10.427,23.895-11.989c1.322-7.025,2.194-14.21,2.564-21.53C402.671,207.123,402.594,219.179,389.331,219.179z"/>
	<path style="fill:#0052B4;" d="M362.665,248.727c-13.333,0-13.333,12.192-26.666,12.192c-13.333,0-13.333-12.192-26.666-12.192
		c-13.333,0-13.333,12.192-26.668,12.192c-13.334,0-13.334-12.192-26.668-12.192s-13.333,12.192-26.667,12.192
		c-13.331,0-13.331-12.192-26.665-12.192s-13.333,12.192-26.669,12.192c-13.333,0-13.333-12.192-26.668-12.192
		c-13.332,0-13.332,12.192-26.665,12.192c-9.527,0-12.249-6.223-17.889-9.777c3.756,10.848,8.64,21.169,14.523,30.817
		c1.023,0.188,2.138,0.293,3.365,0.293c13.332,0,13.332-12.192,26.665-12.192c13.334,0,13.334,12.192,26.668,12.192
		c13.335,0,13.335-12.192,26.669-12.192c13.333,0,13.333,12.192,26.665,12.192c13.333,0,13.333-12.192,26.667-12.192
		s13.333,12.192,26.668,12.192s13.334-12.192,26.668-12.192c13.332,0,13.332,12.192,26.666,12.192
		c13.332,0,13.332-12.192,26.666-12.192c13.334,0,13.334,12.192,26.667,12.192c1.23,0,2.343-0.107,3.366-0.293
		c5.884-9.648,10.769-19.969,14.525-30.817c-5.642,3.554-8.363,9.777-17.892,9.777C375.999,260.918,375.999,248.727,362.665,248.727
		z"/>
</g>
<path style="fill:#F0F0F0;" d="M415.504,186.131c-12.831,0.304-13.008,12.179-26.173,12.179c-13.332,0-13.332-12.192-26.667-12.192
	c-13.333,0-13.333,12.192-26.666,12.192c-13.333,0-13.333-12.192-26.666-12.192c-13.333,0-13.333,12.192-26.668,12.192
	c-13.334,0-13.334-12.192-26.668-12.192c-13.333,0-13.333,12.192-26.667,12.192c-13.331,0-13.331-12.192-26.665-12.192
	c-13.333,0-13.333,12.192-26.669,12.192c-13.333,0-13.333-12.192-26.668-12.192c-13.332,0-13.332,12.192-26.665,12.192
	c-13.162,0-13.34-11.875-26.17-12.179C96.17,190.304,96,194.518,96,198.773c0,2.914,0.083,5.81,0.238,8.686
	c13.089,0.148,13.178,12.183,26.428,12.183c13.332,0,13.332-12.19,26.665-12.19c13.334,0,13.334,12.19,26.668,12.19
	c13.335,0,13.335-12.19,26.669-12.19s13.333,12.19,26.665,12.19c13.333,0,13.333-12.19,26.667-12.19s13.333,12.19,26.668,12.19
	c13.334,0,13.334-12.19,26.668-12.19c13.332,0,13.332,12.19,26.666,12.19c13.332,0,13.332-12.19,26.666-12.19
	c13.334,0,13.334,12.19,26.667,12.19c13.253,0,13.34-12.035,26.432-12.183c0.154-2.875,0.237-5.771,0.237-8.686
	C416,194.518,415.83,190.304,415.504,186.131z"/>
<path style="fill:#C7C7C7;" d="M255.929,21.707c-73.745,0-141.451,47.552-166.61,116.806
	c-25.343,69.773-3.142,149.836,53.974,197.071c57.236,47.338,140.369,53.625,203.978,15.148
	c63.626-38.49,97.228-114.681,82.271-187.573C414.889,91.771,355.517,35.121,283.472,23.843
	C274.361,22.416,265.141,21.707,255.929,21.707 M398.59,263.184c-30.241,67.009-105.732,104.802-177.479,88.399
	c-55.215-12.621-100.384-55.764-115.778-110.195c-15.749-55.658,1.328-116.804,43.417-156.425
	c45.534-42.867,114.172-54.571,171.321-28.799c68.228,30.767,105.971,108.144,87.651,180.844
	C405.459,245.986,402.37,254.739,398.59,263.184C396.502,267.81,400.132,259.739,398.59,263.184"/>
<g>
</g>
<g>
</g>
<g>
</g>
<g>
</g>
<g>
</g>
<g>
</g>
<g>
</g>
<g>
</g>
<g>
</g>
<g>
</g>
<g>
</g>
<g>
</g>
<g>
</g>
<g>
</g>
<g>
</g>
</svg>
