<?xml version="1.0" encoding="iso-8859-1"?>
<!-- Generator: Adobe Illustrator 19.0.0, SVG Export Plug-In . SVG Version: 6.00 Build 0)  -->
<svg version="1.1" id="Layer_1" xmlns="http://www.w3.org/2000/svg" xmlns:xlink="http://www.w3.org/1999/xlink" x="0px" y="0px"
	 viewBox="0 0 512 512" style="enable-background:new 0 0 512 512;" xml:space="preserve">
<path style="fill:#B3B3B3;" d="M434.439,110.654C401.179,45.876,334.359,0.003,255.98,0v101.329
	c55.478,0.004,100.593,43.671,100.595,99.15c0,54.805-45.491,102.048-100.595,102.052V512
	c70.646-73.617,151.953-154.542,187.529-251.428C461.298,212.121,457.979,156.5,434.439,110.654z"/>
<path style="fill:#979797;" d="M68.492,260.572C104.067,357.458,185.374,438.383,256.02,512V302.531
	c-55.103-0.004-100.595-47.247-100.595-102.052c0.002-55.478,45.117-99.146,100.595-99.15V0
	c-78.379,0.003-145.199,45.876-178.46,110.654C54.021,156.5,50.702,212.121,68.492,260.572z"/>
<path style="fill:#0052B4;" d="M256.288,358.773c88.366,0,160-71.635,160-160c0-26.852-6.625-52.155-18.314-74.375L256.1,198.96
	l74.562-141.875c-22.221-11.686-47.523-18.311-74.374-18.311c-88.366,0-160,71.633-160,160c0,44.183,17.908,84.183,46.863,113.137
	C172.105,340.864,212.105,358.773,256.288,358.773z"/>
<path style="fill:#F0F0F0;" d="M397.804,124.573c-7.324-13.941-16.846-27.029-28.566-38.75
	c-11.722-11.721-24.809-21.244-38.75-28.566L142.962,312.098L397.804,124.573z"/>
<path style="fill:#FF9811;" d="M142.962,312.098l254.842-187.525c-7.324-13.941-16.846-27.029-28.566-38.75L142.962,312.098z"/>
<polygon style="fill:#F0F0F0;" points="235.23,132.598 215.69,141.79 226.096,160.715 204.877,156.656 202.188,178.09 
	187.408,162.325 172.629,178.09 169.94,156.656 148.722,160.715 159.127,141.79 139.586,132.598 159.127,123.406 148.722,104.483 
	169.939,108.542 172.629,87.106 187.408,102.87 202.189,87.106 204.877,108.542 226.096,104.483 215.691,123.408 "/>
<path style="fill:#C7C7C7;" d="M255.929,21.707c-73.745,0-141.451,47.552-166.61,116.806
	c-25.343,69.773-3.142,149.836,53.974,197.071c57.236,47.338,140.369,53.625,203.978,15.148
	c63.626-38.49,97.228-114.681,82.271-187.573C414.889,91.771,355.517,35.121,283.472,23.843
	C274.361,22.416,265.141,21.707,255.929,21.707 M398.59,263.184c-30.241,67.009-105.732,104.802-177.479,88.399
	c-55.215-12.621-100.384-55.764-115.778-110.195c-15.749-55.658,1.328-116.804,43.417-156.425
	c45.534-42.867,114.172-54.571,171.321-28.799c68.228,30.767,105.971,108.144,87.651,180.844
	C405.459,245.986,402.37,254.739,398.59,263.184C396.502,267.81,400.132,259.739,398.59,263.184"/>
<g>
</g>
<g>
</g>
<g>
</g>
<g>
</g>
<g>
</g>
<g>
</g>
<g>
</g>
<g>
</g>
<g>
</g>
<g>
</g>
<g>
</g>
<g>
</g>
<g>
</g>
<g>
</g>
<g>
</g>
</svg>
