<?xml version="1.0" encoding="iso-8859-1"?>
<!-- Generator: Adobe Illustrator 19.0.0, SVG Export Plug-In . SVG Version: 6.00 Build 0)  -->
<svg version="1.1" id="Layer_1" xmlns="http://www.w3.org/2000/svg" xmlns:xlink="http://www.w3.org/1999/xlink" x="0px" y="0px"
	 viewBox="0 0 512 512" style="enable-background:new 0 0 512 512;" xml:space="preserve">
<path style="fill:#B3B3B3;" d="M434.439,110.654C401.178,45.876,334.359,0.003,255.98,0v101.329
	c55.478,0.004,100.593,43.671,100.595,99.15c0,54.805-45.491,102.048-100.595,102.052V512
	c70.645-73.617,151.953-154.542,187.529-251.428C461.298,212.121,457.979,156.5,434.439,110.654z"/>
<path style="fill:#979797;" d="M68.492,260.572C104.066,357.458,185.374,438.383,256.019,512V302.531
	c-55.104-0.004-100.595-47.247-100.594-102.052c0.001-55.478,45.116-99.146,100.594-99.15V0
	c-78.379,0.003-145.2,45.876-178.46,110.654C54.021,156.5,50.703,212.121,68.492,260.572z"/>
<circle style="fill:#0052B4;" cx="256" cy="198.773" r="160"/>
<path style="fill:#F0F0F0;" d="M324.665,209.935c0.589-3.635,0.9-7.364,0.9-11.163C325.566,202.571,325.254,206.3,324.665,209.935
	l28.726-11.163l-28.726-11.163l-15.778-6.131l-25.633-9.961l-9.961-25.633c16.796,5.506,30.087,18.798,35.594,35.594l15.778,6.131
	c-4.768-29.436-28.068-52.735-57.503-57.504L256,101.381l-11.163,28.725c-29.435,4.769-52.735,28.068-57.503,57.504l-28.725,11.163
	l28.725,11.163c4.768,29.434,28.068,52.735,57.503,57.502L256,296.164l11.163-28.727
	C296.596,262.671,319.897,239.369,324.665,209.935z M272.504,182.269L256,198.773h58.978l-42.474,16.505L256,198.773v58.979
	l-16.506-42.475L256,198.773h-58.978l42.473-16.505L256,198.773v-58.979L272.504,182.269z M238.706,145.886l-9.961,25.633
	l-25.633,9.961C208.617,164.684,221.909,151.392,238.706,145.886z M203.112,216.067l25.633,9.961l9.961,25.633
	C221.909,246.155,208.618,232.863,203.112,216.067z M273.294,251.661l9.961-25.633l25.633-9.961
	C303.381,232.863,290.089,246.155,273.294,251.661z"/>
<g>
	<polygon style="fill:#0052B4;" points="314.978,198.773 256,198.773 272.504,215.277 	"/>
	<polygon style="fill:#0052B4;" points="197.022,198.773 256,198.773 239.494,182.269 	"/>
	<polygon style="fill:#0052B4;" points="256,257.753 256,198.773 239.494,215.277 	"/>
	<polygon style="fill:#0052B4;" points="256,198.773 272.504,182.269 256,139.794 	"/>
</g>
<g>
	<rect x="249.045" y="59.642" style="fill:#F0F0F0;" width="13.909" height="27.829"/>
	<rect x="116.864" y="191.819" style="fill:#F0F0F0;" width="27.829" height="13.909"/>
	<rect x="249.045" y="310.08" style="fill:#F0F0F0;" width="13.909" height="27.829"/>
	<rect x="367.307" y="191.819" style="fill:#F0F0F0;" width="27.829" height="13.909"/>
</g>
<path style="fill:#C7C7C7;" d="M255.927,21.707c-73.745,0-141.451,47.552-166.61,116.806
	c-25.343,69.773-3.142,149.836,53.974,197.071c57.236,47.338,140.369,53.625,203.979,15.148
	c63.626-38.49,97.228-114.681,82.271-187.573C414.888,91.771,355.517,35.121,283.472,23.843
	C274.36,22.416,265.141,21.707,255.927,21.707 M398.59,263.184c-30.241,67.009-105.732,104.802-177.479,88.399
	c-55.215-12.621-100.384-55.764-115.778-110.195c-15.749-55.658,1.328-116.804,43.417-156.425
	c45.535-42.867,114.172-54.571,171.321-28.799c68.228,30.767,105.971,108.144,87.651,180.844
	C405.459,245.986,402.37,254.739,398.59,263.184C396.502,267.81,400.132,259.739,398.59,263.184"/>
<g>
</g>
<g>
</g>
<g>
</g>
<g>
</g>
<g>
</g>
<g>
</g>
<g>
</g>
<g>
</g>
<g>
</g>
<g>
</g>
<g>
</g>
<g>
</g>
<g>
</g>
<g>
</g>
<g>
</g>
</svg>
