<?xml version="1.0" encoding="iso-8859-1"?>
<!-- Generator: Adobe Illustrator 19.0.0, SVG Export Plug-In . SVG Version: 6.00 Build 0)  -->
<svg version="1.1" id="Layer_1" xmlns="http://www.w3.org/2000/svg" xmlns:xlink="http://www.w3.org/1999/xlink" x="0px" y="0px"
	 viewBox="0 0 512 512" style="enable-background:new 0 0 512 512;" xml:space="preserve">
<path style="fill:#B3B3B3;" d="M434.439,110.654C401.179,45.876,334.359,0.003,255.98,0v101.329
	c55.478,0.004,100.593,43.671,100.595,99.15c0,54.805-45.491,102.048-100.595,102.052V512
	c70.646-73.617,151.953-154.542,187.529-251.428C461.298,212.121,457.979,156.5,434.439,110.654z"/>
<path style="fill:#979797;" d="M68.492,260.572C104.067,357.458,185.374,438.383,256.02,512V302.531
	c-55.103-0.004-100.595-47.247-100.595-102.052c0.002-55.478,45.117-99.146,100.595-99.15V0
	c-78.379,0.003-145.199,45.876-178.46,110.654C54.021,156.5,50.702,212.121,68.492,260.572z"/>
<circle style="fill:#F0F0F0;" cx="256" cy="198.773" r="160"/>
<path style="fill:#D80027;" d="M414.645,177.903H276.87h-0.001V40.127c-6.832-0.89-13.796-1.354-20.869-1.354
	s-14.037,0.465-20.869,1.354v137.776l0,0H97.355C96.465,184.735,96,191.7,96,198.773s0.465,14.037,1.355,20.869H235.13h0.001
	v137.776c6.832,0.89,13.796,1.355,20.869,1.355s14.037-0.465,20.869-1.355V219.644v-0.001h137.776
	c0.89-6.832,1.355-13.796,1.355-20.869C416,191.7,415.536,184.735,414.645,177.903z"/>
<path d="M332.522,94.425c-12.965,0-23.861,8.868-26.95,20.869l26.95,6.956l26.949-6.956
	C356.382,103.294,345.488,94.425,332.522,94.425z"/>
<path d="M304.695,157.034l34.782,6.957v-14.789c9.778-2.517,17.474-10.215,19.99-19.993l-26.947-6.957h-34.782l6.956,20.869v13.913
	H304.695z"/>
<path style="fill:#ACABB1;" d="M359.471,115.295H297.74v13.914v13.913h6.956v-13.913h54.773c0.573-2.224,0.879-4.556,0.879-6.957
	C360.348,119.849,360.044,117.519,359.471,115.295z"/>
<path d="M186.435,94.425c-12.966,0-23.861,8.868-26.95,20.869l26.95,6.956l26.949-6.956
	C210.295,103.294,199.402,94.425,186.435,94.425z"/>
<path d="M158.608,157.034l34.783,6.957v-14.789c9.777-2.517,17.474-10.215,19.99-19.993l-26.947-6.957h-34.783l6.956,20.869v13.913
	H158.608z"/>
<path style="fill:#ACABB1;" d="M213.385,115.295h-61.732v13.914v13.913h6.956v-13.913h54.774c0.573-2.224,0.878-4.556,0.878-6.957
	C214.26,119.849,213.956,117.519,213.385,115.295z"/>
<path d="M332.522,233.556c-12.965,0-23.861,8.868-26.95,20.868l26.95,6.956l26.949-6.956
	C356.382,242.425,345.488,233.556,332.522,233.556z"/>
<path d="M304.695,296.164l34.782,6.957v-14.79c9.778-2.517,17.474-10.214,19.99-19.993l-26.947-6.957h-34.782l6.956,20.87v13.913
	H304.695z"/>
<path style="fill:#ACABB1;" d="M359.471,254.425H297.74v13.914v13.913h6.956v-13.913h54.773c0.573-2.224,0.879-4.555,0.879-6.957
	C360.348,258.979,360.044,256.649,359.471,254.425z"/>
<path d="M186.435,233.556c-12.966,0-23.861,8.868-26.95,20.868l26.95,6.956l26.949-6.956
	C210.295,242.425,199.402,233.556,186.435,233.556z"/>
<path d="M158.608,296.164l34.783,6.957v-14.79c9.777-2.517,17.474-10.214,19.99-19.993l-26.947-6.957h-34.783l6.956,20.87v13.913
	H158.608z"/>
<path style="fill:#ACABB1;" d="M213.385,254.425h-61.732v13.914v13.913h6.956v-13.913h54.774c0.573-2.224,0.878-4.555,0.878-6.957
	C214.26,258.979,213.956,256.649,213.385,254.425z"/>
<path style="fill:#C7C7C7;" d="M255.929,21.707c-73.745,0-141.451,47.552-166.61,116.806
	c-25.343,69.773-3.142,149.836,53.974,197.071c57.236,47.338,140.369,53.625,203.978,15.148
	c63.626-38.49,97.228-114.681,82.271-187.573C414.889,91.771,355.517,35.121,283.472,23.843
	C274.361,22.416,265.141,21.707,255.929,21.707 M398.59,263.184c-30.241,67.009-105.732,104.802-177.479,88.399
	c-55.215-12.621-100.384-55.764-115.778-110.195c-15.749-55.658,1.328-116.804,43.417-156.425
	c45.534-42.867,114.172-54.571,171.321-28.799c68.228,30.767,105.971,108.144,87.651,180.844
	C405.459,245.986,402.37,254.739,398.59,263.184C396.502,267.81,400.132,259.739,398.59,263.184"/>
<g>
</g>
<g>
</g>
<g>
</g>
<g>
</g>
<g>
</g>
<g>
</g>
<g>
</g>
<g>
</g>
<g>
</g>
<g>
</g>
<g>
</g>
<g>
</g>
<g>
</g>
<g>
</g>
<g>
</g>
</svg>
