<?xml version="1.0" encoding="iso-8859-1"?>
<!-- Generator: Adobe Illustrator 19.0.0, SVG Export Plug-In . SVG Version: 6.00 Build 0)  -->
<svg version="1.1" id="Layer_1" xmlns="http://www.w3.org/2000/svg" xmlns:xlink="http://www.w3.org/1999/xlink" x="0px" y="0px"
	 viewBox="0 0 512 512" style="enable-background:new 0 0 512 512;" xml:space="preserve">
<path style="fill:#B3B3B3;" d="M434.439,110.654C401.179,45.876,334.359,0.003,255.98,0v101.329
	c55.478,0.004,100.593,43.671,100.595,99.15c0,54.805-45.491,102.048-100.595,102.052V512
	c70.646-73.617,151.953-154.542,187.529-251.428C461.298,212.121,457.979,156.5,434.439,110.654z"/>
<path style="fill:#979797;" d="M68.492,260.572C104.067,357.458,185.374,438.383,256.02,512V302.531
	c-55.103-0.004-100.595-47.247-100.595-102.052c0.002-55.478,45.117-99.146,100.595-99.15V0
	c-78.379,0.003-145.199,45.876-178.46,110.654C54.021,156.5,50.702,212.121,68.492,260.572z"/>
<path style="fill:#D80027;" d="M242.087,212.686c0,0-99.132-127.072-99.225-127.049C171.817,56.682,211.817,38.773,256,38.773
	c88.366,0,160,71.634,160,160L242.087,212.686z"/>
<path style="fill:#0052B4;" d="M242.087,198.773c0,0-99.132,113.161-99.225,113.136c28.954,28.955,68.954,46.864,113.137,46.864
	c88.366,0,160-71.634,160-160H242.087z"/>
<path style="fill:#F0F0F0;" d="M142.863,85.635c-62.483,62.483-62.483,163.792,0,226.275
	C168.684,286.09,193.517,261.257,256,198.773L142.863,85.635z"/>
<g>
	<path style="fill:#FFDA44;" d="M113.537,198.773c-0.087,1.15-0.146,2.307-0.146,3.478c0,24.973,20.244,45.218,45.217,45.218
		s45.218-20.244,45.218-45.218c0-1.171-0.06-2.329-0.147-3.478H113.537z"/>
	<circle style="fill:#FFDA44;" cx="158.613" cy="163.989" r="13.909"/>
</g>
<path style="fill:#D80027;" d="M127.305,160.512v45.217c0,23.963,31.305,31.305,31.305,31.305s31.305-7.342,31.305-31.305v-45.217
	H127.305z"/>
<path style="fill:#338AF3;" d="M158.624,222.473c-5.807-2.09-17.406-7.43-17.406-16.743v-31.305H176v31.305
	C176,215.072,164.402,220.4,158.624,222.473z"/>
<polygon style="fill:#F3F3F3;" points="165.566,191.817 165.566,184.861 158.608,181.381 151.652,184.861 151.652,191.817 
	148.174,195.295 148.174,209.209 169.044,209.209 169.044,195.295 "/>
<path style="fill:#C7C7C7;" d="M255.929,21.707c-73.745,0-141.451,47.552-166.61,116.806
	c-25.343,69.773-3.142,149.836,53.974,197.071c57.236,47.338,140.369,53.625,203.978,15.148
	c63.626-38.49,97.228-114.681,82.271-187.573C414.889,91.771,355.517,35.121,283.472,23.843
	C274.361,22.416,265.141,21.707,255.929,21.707 M398.59,263.184c-30.241,67.009-105.732,104.802-177.479,88.399
	c-55.215-12.621-100.384-55.764-115.778-110.195c-15.749-55.658,1.328-116.804,43.417-156.425
	c45.534-42.867,114.172-54.571,171.321-28.799c68.228,30.767,105.971,108.144,87.651,180.844
	C405.459,245.986,402.37,254.739,398.59,263.184C396.502,267.81,400.132,259.739,398.59,263.184"/>
<g>
</g>
<g>
</g>
<g>
</g>
<g>
</g>
<g>
</g>
<g>
</g>
<g>
</g>
<g>
</g>
<g>
</g>
<g>
</g>
<g>
</g>
<g>
</g>
<g>
</g>
<g>
</g>
<g>
</g>
</svg>
