<?xml version="1.0" encoding="iso-8859-1"?>
<!-- Generator: Adobe Illustrator 19.0.0, SVG Export Plug-In . SVG Version: 6.00 Build 0)  -->
<svg version="1.1" id="Layer_1" xmlns="http://www.w3.org/2000/svg" xmlns:xlink="http://www.w3.org/1999/xlink" x="0px" y="0px"
	 viewBox="0 0 512 512" style="enable-background:new 0 0 512 512;" xml:space="preserve">
<path style="fill:#B3B3B3;" d="M434.44,110.654C401.18,45.876,334.359,0.003,255.98,0v101.329
	c55.478,0.004,100.593,43.671,100.594,99.151c0.001,54.805-45.491,102.048-100.594,102.051V512
	c70.645-73.617,151.953-154.542,187.529-251.428C461.297,212.121,457.979,156.5,434.44,110.654z"/>
<path style="fill:#979797;" d="M68.492,260.572C104.067,357.458,185.374,438.383,256.02,512V302.531
	c-55.104-0.003-100.595-47.246-100.594-102.051c0.001-55.478,45.116-99.147,100.594-99.151V0
	c-78.379,0.003-145.2,45.876-178.46,110.654C54.021,156.5,50.703,212.121,68.492,260.572z"/>
<path style="fill:#FFDA44;" d="M400.124,268.337C410.295,247.302,416,223.703,416,198.772c0-24.932-5.705-48.531-15.876-69.565
	L256,122.251l-144.124,6.957C101.704,150.242,96,173.841,96,198.772c0,24.932,5.705,48.531,15.876,69.565L256,275.294
	L400.124,268.337z"/>
<path d="M256,38.772c-63.434,0-118.244,36.915-144.124,90.435h288.246C374.243,75.687,319.434,38.772,256,38.772z"/>
<path style="fill:#0052B4;" d="M256,358.772c-63.434,0-118.244-36.915-144.124-90.435h288.246
	C374.243,321.857,319.434,358.772,256,358.772z"/>
<path style="fill:#A2001D;" d="M408.445,150.077H103.556C98.655,165.433,96,181.791,96,198.772s2.655,33.34,7.555,48.695h304.889
	c4.901-15.356,7.555-31.714,7.555-48.695S413.345,165.433,408.445,150.077z"/>
<g>
	<rect x="151.648" y="191.819" style="fill:#FFDA44;" width="208.693" height="13.909"/>
	<rect x="179.477" y="163.989" style="fill:#FFDA44;" width="153.045" height="13.909"/>
</g>
<path style="fill:#F0F0F0;" d="M333.516,198.772c0,0-35.776,41.739-77.516,41.739s-41.739-41.739-41.739-41.739
	s0-41.739,41.739-41.739S333.516,198.772,333.516,198.772z"/>
<path d="M256,240.512c-41.739,0-77.516-41.739-77.516-41.739S214.26,157.035,256,157.035"/>
<rect x="228.171" y="184.864" style="fill:#F0F0F0;" width="13.909" height="27.829"/>
<rect x="269.909" y="184.864" width="13.909" height="27.829"/>
<g>
	<circle style="fill:#0052B4;" cx="151.648" cy="198.773" r="13.909"/>
	<circle style="fill:#0052B4;" cx="360.352" cy="198.773" r="13.909"/>
</g>
<path style="fill:#C7C7C7;" d="M255.928,21.706c-73.745,0-141.451,47.553-166.61,116.807
	c-25.343,69.773-3.142,149.835,53.974,197.07c57.236,47.338,140.369,53.625,203.978,15.148
	c63.626-38.489,97.228-114.681,82.271-187.573C414.888,91.77,355.517,35.12,283.472,23.842
	C274.361,22.416,265.141,21.706,255.928,21.706 M398.59,263.184c-30.241,67.01-105.732,104.802-177.479,88.399
	c-55.215-12.621-100.384-55.764-115.778-110.195c-15.749-55.658,1.328-116.804,43.417-156.425
	c45.534-42.867,114.172-54.571,171.321-28.799c68.228,30.767,105.971,108.144,87.651,180.845
	C405.459,245.986,402.37,254.739,398.59,263.184C396.502,267.811,400.132,259.739,398.59,263.184"/>
<g>
</g>
<g>
</g>
<g>
</g>
<g>
</g>
<g>
</g>
<g>
</g>
<g>
</g>
<g>
</g>
<g>
</g>
<g>
</g>
<g>
</g>
<g>
</g>
<g>
</g>
<g>
</g>
<g>
</g>
</svg>
