<?xml version="1.0" encoding="iso-8859-1"?>
<!-- Generator: Adobe Illustrator 19.0.0, SVG Export Plug-In . SVG Version: 6.00 Build 0)  -->
<svg version="1.1" id="Layer_1" xmlns="http://www.w3.org/2000/svg" xmlns:xlink="http://www.w3.org/1999/xlink" x="0px" y="0px"
	 viewBox="0 0 512 512" style="enable-background:new 0 0 512 512;" xml:space="preserve">
<path style="fill:#B3B3B3;" d="M434.439,110.654C401.179,45.876,334.359,0.003,255.98,0v101.329
	c55.478,0.004,100.593,43.671,100.595,99.15c0,54.805-45.491,102.048-100.595,102.052V512
	c70.646-73.617,151.953-154.542,187.529-251.428C461.298,212.121,457.979,156.5,434.439,110.654z"/>
<path style="fill:#979797;" d="M68.492,260.572C104.067,357.458,185.374,438.383,256.02,512V302.531
	c-55.103-0.004-100.595-47.247-100.595-102.052c0.002-55.478,45.117-99.146,100.595-99.15V0
	c-78.379,0.003-145.199,45.876-178.46,110.654C54.021,156.5,50.702,212.121,68.492,260.572z"/>
<circle style="fill:#FFDA44;" cx="256" cy="198.773" r="160"/>
<path style="fill:#0052B4;" d="M353.392,115.295c-1.436,6.897-2.087,14.243-2.087,21.566c0,42.208,25.163,78.74,61.222,95.185
	c2.269-10.734,3.473-21.862,3.473-33.273c0-88.365-71.634-160-160-160s-160,71.635-160,160c0,88.366,71.634,160,160,160
	c54.802,0,103.161-27.557,131.998-69.565H186.435v-20.869h213.689c2.187-4.522,4.162-9.166,5.924-13.914H186.435L353.392,115.295z"
	/>
<g>
	<polygon style="fill:#F0F0F0;" points="213.545,122.252 216.998,132.881 228.174,132.881 219.134,139.449 222.588,150.077 
		213.545,143.508 204.505,150.077 207.958,139.449 198.915,132.881 210.092,132.881 	"/>
	<polygon style="fill:#F0F0F0;" points="168.149,198.773 172.467,212.061 186.435,212.061 175.134,220.27 179.45,233.556 
		168.149,225.344 156.847,233.556 161.165,220.27 149.862,212.061 163.831,212.061 	"/>
	<polygon style="fill:#F0F0F0;" points="168.149,87.469 172.467,100.756 186.435,100.756 175.134,108.965 179.45,122.252 
		168.149,114.039 156.847,122.252 161.165,108.965 149.862,100.756 163.831,100.756 	"/>
	<polygon style="fill:#F0F0F0;" points="133.366,150.077 137.683,163.364 151.652,163.364 140.35,171.574 144.668,184.861 
		133.366,176.649 122.065,184.861 126.381,171.574 115.081,163.364 129.049,163.364 	"/>
</g>
<path style="fill:#C7C7C7;" d="M255.929,21.707c-73.745,0-141.451,47.552-166.61,116.806
	c-25.343,69.773-3.142,149.836,53.974,197.071c57.236,47.338,140.369,53.625,203.978,15.148
	c63.626-38.49,97.228-114.681,82.271-187.573C414.889,91.771,355.517,35.121,283.472,23.843
	C274.361,22.416,265.141,21.707,255.929,21.707 M398.59,263.184c-30.241,67.009-105.732,104.802-177.479,88.399
	c-55.215-12.621-100.384-55.764-115.778-110.195c-15.749-55.658,1.328-116.804,43.417-156.425
	c45.534-42.867,114.172-54.571,171.321-28.799c68.228,30.767,105.971,108.144,87.651,180.844
	C405.459,245.986,402.37,254.739,398.59,263.184C396.502,267.81,400.132,259.739,398.59,263.184"/>
<g>
</g>
<g>
</g>
<g>
</g>
<g>
</g>
<g>
</g>
<g>
</g>
<g>
</g>
<g>
</g>
<g>
</g>
<g>
</g>
<g>
</g>
<g>
</g>
<g>
</g>
<g>
</g>
<g>
</g>
</svg>
