<?xml version="1.0" encoding="iso-8859-1"?>
<!-- Generator: Adobe Illustrator 19.0.0, SVG Export Plug-In . SVG Version: 6.00 Build 0)  -->
<svg version="1.1" id="Layer_1" xmlns="http://www.w3.org/2000/svg" xmlns:xlink="http://www.w3.org/1999/xlink" x="0px" y="0px"
	 viewBox="0 0 512 512" style="enable-background:new 0 0 512 512;" xml:space="preserve">
<path style="fill:#B3B3B3;" d="M434.439,110.654C401.178,45.876,334.359,0.003,255.98,0v101.329
	c55.478,0.004,100.593,43.671,100.595,99.151c0,54.805-45.491,102.048-100.595,102.051V512
	c70.645-73.617,151.953-154.542,187.529-251.428C461.298,212.121,457.979,156.5,434.439,110.654z"/>
<path style="fill:#979797;" d="M68.492,260.572C104.066,357.458,185.374,438.383,256.019,512V302.531
	c-55.104-0.003-100.595-47.247-100.594-102.051c0.001-55.478,45.116-99.147,100.594-99.151V0
	c-78.379,0.003-145.2,45.876-178.46,110.654C54.021,156.5,50.703,212.121,68.492,260.572z"/>
<path d="M416,198.772c0-7.073-0.465-14.038-1.355-20.869H235.128c-32.689-32.686-92.269-92.262-92.266-92.268
	c-62.483,62.484-62.483,163.791,0,226.275l92.268-92.268h179.515C415.535,212.811,416,205.846,416,198.772z"/>
<g>
	<path style="fill:#F0F0F0;" d="M415.954,202.411c-0.007,0.309-0.014,0.619-0.023,0.927
		C415.939,203.029,415.947,202.72,415.954,202.411z"/>
	<path style="fill:#F0F0F0;" d="M415.799,206.784c-0.015,0.306-0.035,0.61-0.052,0.915
		C415.764,207.394,415.785,207.09,415.799,206.784z"/>
	<path style="fill:#F0F0F0;" d="M415.585,210.272c-0.032,0.449-0.064,0.898-0.1,1.346
		C415.522,211.17,415.553,210.721,415.585,210.272z"/>
	<path style="fill:#F0F0F0;" d="M415.049,181.334c0.059,0.534,0.117,1.069,0.171,1.605
		C415.168,182.402,415.108,181.869,415.049,181.334z"/>
	<path style="fill:#F0F0F0;" d="M415.748,189.846c0.017,0.305,0.037,0.609,0.052,0.915
		C415.785,190.455,415.764,190.15,415.748,189.846z"/>
	<path style="fill:#F0F0F0;" d="M415.931,194.207c0.01,0.308,0.016,0.618,0.023,0.927
		C415.947,194.825,415.939,194.515,415.931,194.207z"/>
	<path style="fill:#F0F0F0;" d="M415.485,185.926c0.036,0.448,0.068,0.897,0.1,1.346
		C415.553,186.825,415.522,186.374,415.485,185.926z"/>
</g>
<path style="fill:#D80027;" d="M414.645,177.903c0.07,0.548,0.135,1.099,0.201,1.649C405.35,100.25,337.859,38.772,256,38.772
	c-44.183,0-84.185,17.909-113.138,46.865l92.265,92.266H414.645z"/>
<path style="fill:#6DA544;" d="M414.645,219.643h-179.52l-92.265,92.266c28.955,28.956,68.956,46.864,113.138,46.864
	c81.859,0,149.351-61.477,158.847-140.779C414.781,218.543,414.717,219.093,414.645,219.643z"/>
<path style="fill:#F0F0F0;" d="M415.22,214.606c-0.053,0.537-0.112,1.07-0.171,1.605
	C415.108,215.676,415.168,215.142,415.22,214.606z"/>
<path d="M415.585,187.273c0.061,0.857,0.114,1.713,0.162,2.573C415.7,188.987,415.646,188.129,415.585,187.273z"/>
<path d="M414.847,179.552c0.07,0.593,0.14,1.187,0.203,1.782C414.985,180.739,414.917,180.145,414.847,179.552z"/>
<path d="M415.22,182.939c0.097,0.993,0.186,1.989,0.264,2.988C415.406,184.928,415.318,183.932,415.22,182.939z"/>
<path d="M416,198.772c0,1.216-0.019,2.429-0.046,3.638C415.981,201.201,416,199.988,416,198.772z"/>
<path d="M415.748,207.699c-0.048,0.86-0.102,1.716-0.162,2.573C415.646,209.417,415.7,208.558,415.748,207.699z"/>
<path d="M415.485,211.618c-0.079,0.998-0.167,1.995-0.264,2.988C415.318,213.613,415.406,212.617,415.485,211.618z"/>
<path d="M415.049,216.211c-0.064,0.595-0.132,1.189-0.203,1.782C414.917,217.401,414.985,216.805,415.049,216.211z"/>
<path d="M415.954,195.134c0.027,1.21,0.046,2.422,0.046,3.638C416,197.556,415.981,196.343,415.954,195.134z"/>
<path d="M415.799,190.761c0.057,1.146,0.099,2.294,0.131,3.445C415.898,193.055,415.857,191.906,415.799,190.761z"/>
<path d="M415.931,203.338c-0.032,1.152-0.075,2.301-0.131,3.445C415.857,205.639,415.898,204.49,415.931,203.338z"/>
<g>
	<path style="fill:#FFDA44;" d="M415.847,191.758H229.251l-95.849-95.834c-3.098,3.267-6.457,7.83-8.532,11.079l91.662,91.71
		l-91.739,91.74c1.817,3.231,5.773,8.014,8.55,11.125l95.909-95.909h186.619c0.099-2.307,0.13-4.624,0.13-6.957
		C416,195.591,415.913,193.289,415.847,191.758z"/>
	<path style="fill:#FFDA44;" d="M134.866,232.88v-13.402c13.374,0,24.254-10.881,24.254-24.253c0-9.461-7.697-17.159-17.159-17.159
		c-6.446,0-11.69,5.244-11.69,11.691c0,4.122,3.354,7.475,7.476,7.475c2.33,0,4.225-1.897,4.225-4.226h13.402
		c0,9.721-7.908,17.628-17.627,17.628c-11.513,0-20.877-9.366-20.877-20.877c0-13.836,11.257-25.092,25.09-25.092
		c16.851,0,30.561,13.71,30.561,30.561C172.521,215.988,155.63,232.88,134.866,232.88z"/>
</g>
<path style="fill:#C7C7C7;" d="M255.927,21.706c-73.745,0-141.451,47.553-166.61,116.807
	c-25.343,69.773-3.142,149.835,53.974,197.07c57.236,47.338,140.369,53.625,203.979,15.148
	c63.626-38.489,97.228-114.681,82.271-187.573C414.888,91.77,355.517,35.12,283.472,23.842
	C274.36,22.416,265.141,21.706,255.927,21.706 M398.59,263.184c-30.241,67.01-105.732,104.802-177.479,88.399
	c-55.215-12.621-100.384-55.764-115.778-110.195c-15.749-55.658,1.328-116.804,43.417-156.425
	c45.535-42.867,114.172-54.571,171.321-28.799c68.228,30.767,105.971,108.144,87.651,180.845
	C405.459,245.986,402.37,254.739,398.59,263.184C396.502,267.811,400.132,259.739,398.59,263.184"/>
<g>
</g>
<g>
</g>
<g>
</g>
<g>
</g>
<g>
</g>
<g>
</g>
<g>
</g>
<g>
</g>
<g>
</g>
<g>
</g>
<g>
</g>
<g>
</g>
<g>
</g>
<g>
</g>
<g>
</g>
</svg>
