<?xml version="1.0" encoding="iso-8859-1"?>
<!-- Generator: Adobe Illustrator 19.0.0, SVG Export Plug-In . SVG Version: 6.00 Build 0)  -->
<svg version="1.1" id="Layer_1" xmlns="http://www.w3.org/2000/svg" xmlns:xlink="http://www.w3.org/1999/xlink" x="0px" y="0px"
	 viewBox="0 0 512 512" style="enable-background:new 0 0 512 512;" xml:space="preserve">
<path style="fill:#B3B3B3;" d="M434.44,110.654C401.18,45.876,334.359,0.003,255.98,0v101.329
	c55.478,0.004,100.593,43.67,100.594,99.15c0.001,54.805-45.49,102.048-100.594,102.052V512
	c70.645-73.617,151.953-154.542,187.529-251.428C461.297,212.121,457.979,156.5,434.44,110.654z"/>
<path style="fill:#979797;" d="M68.492,260.572C104.066,357.458,185.374,438.383,256.02,512V302.531
	c-55.104-0.004-100.595-47.247-100.594-102.052c0.001-55.479,45.116-99.146,100.594-99.15V0
	c-78.379,0.003-145.2,45.876-178.46,110.654C54.021,156.5,50.703,212.121,68.492,260.572z"/>
<path style="fill:#0052B4;" d="M369.137,311.91c-62.484,62.483-163.791,62.483-226.275,0c-62.483-62.483-62.483-163.792,0-226.275
	c4.919,4.918,127.894,98.379,127.894,98.379L369.137,311.91z"/>
<path style="fill:#6DA544;" d="M142.863,85.635c62.484-62.483,163.791-62.483,226.275,0c62.483,62.483,62.483,163.792,0,226.275"/>
<circle style="fill:#FFDA44;" cx="256" cy="198.773" r="41.739"/>
<g>
	<polygon style="fill:#F0F0F0;" points="155.578,268.337 159.968,277.519 169.884,275.227 165.442,284.383 173.417,290.706 
		163.489,292.944 163.517,303.121 155.578,296.754 147.639,303.121 147.666,292.944 137.739,290.706 145.712,284.383 
		141.272,275.227 151.187,277.519 	"/>
	<polygon style="fill:#F0F0F0;" points="126.858,191.817 131.248,200.996 141.163,198.704 136.723,207.862 144.695,214.186 
		134.769,216.422 134.796,226.598 126.858,220.231 118.918,226.598 118.946,216.422 109.019,214.186 116.992,207.862 
		112.552,198.704 122.466,200.996 	"/>
	<polygon style="fill:#F0F0F0;" points="155.578,129.209 159.968,138.387 169.884,136.096 165.443,145.254 173.417,151.578 
		163.489,153.812 163.516,163.989 155.578,157.622 147.639,163.989 147.666,153.812 137.74,151.578 145.712,145.254 
		141.272,136.096 151.187,138.387 	"/>
	<polygon style="fill:#F0F0F0;" points="191.254,177.902 195.645,187.084 205.561,184.791 201.12,193.95 209.093,200.271 
		199.166,202.509 199.194,212.686 191.254,206.319 183.316,212.686 183.343,202.509 173.417,200.271 181.389,193.95 
		176.949,184.791 186.864,187.084 	"/>
	<polygon style="fill:#F0F0F0;" points="165.744,219.642 169.198,230.271 180.373,230.271 171.331,236.839 174.785,247.469 
		165.744,240.9 156.703,247.469 160.156,236.839 151.115,230.271 162.29,230.271 	"/>
</g>
<path style="fill:#6DA544;" d="M256,226.598h13.913c0,0,6.029-10.665,0-20.868l13.913-13.913l-6.956-13.915h-6.957
	c0,0-3.478,10.435-17.391,10.435c-13.914,0-17.392-10.435-17.392-10.435h-6.956l6.956,13.915l-6.956,13.913l6.956,6.956
	c0,0,6.957-13.913,20.869-6.956C256,205.729,261.913,214.425,256,226.598z"/>
<path style="fill:#FFDA44;" d="M359.845,126.411c0.329-1.709,0.502-3.473,0.502-5.277c0-12.375-8.08-22.857-19.25-26.473
	c3.412,6.938,5.337,14.741,5.337,22.996c0,2.783-0.224,5.515-0.644,8.179c-1.681-2.706-3.841-5.181-6.479-7.281
	c-9.937-7.908-23.518-8.116-33.559-1.456c7.751,1.692,15.247,5.134,21.876,10.406c5.19,4.131,9.385,9.716,12.595,15.11
	l-42.484,13.302c41.739,6.956,76.522-20.869,76.522-20.869C370.406,127.34,364.421,126.039,359.845,126.411z"/>
<path style="fill:#C7C7C7;" d="M255.928,21.707c-73.745,0-141.451,47.552-166.61,116.806
	c-25.343,69.773-3.142,149.836,53.974,197.071c57.236,47.338,140.369,53.625,203.978,15.148
	c63.626-38.49,97.228-114.681,82.271-187.573C414.888,91.771,355.517,35.121,283.472,23.843
	C274.361,22.416,265.141,21.707,255.928,21.707 M398.59,263.184c-30.241,67.009-105.732,104.802-177.479,88.399
	c-55.215-12.621-100.384-55.764-115.778-110.195c-15.749-55.658,1.328-116.804,43.417-156.425
	c45.534-42.867,114.172-54.571,171.321-28.799c68.228,30.767,105.971,108.144,87.651,180.844
	C405.459,245.986,402.37,254.739,398.59,263.184C396.502,267.81,400.132,259.739,398.59,263.184"/>
<g>
</g>
<g>
</g>
<g>
</g>
<g>
</g>
<g>
</g>
<g>
</g>
<g>
</g>
<g>
</g>
<g>
</g>
<g>
</g>
<g>
</g>
<g>
</g>
<g>
</g>
<g>
</g>
<g>
</g>
</svg>
