<?xml version="1.0" encoding="iso-8859-1"?>
<!-- Generator: Adobe Illustrator 19.0.0, SVG Export Plug-In . SVG Version: 6.00 Build 0)  -->
<svg version="1.1" id="Layer_1" xmlns="http://www.w3.org/2000/svg" xmlns:xlink="http://www.w3.org/1999/xlink" x="0px" y="0px"
	 viewBox="0 0 512 512" style="enable-background:new 0 0 512 512;" xml:space="preserve">
<path style="fill:#B3B3B3;" d="M434.439,110.654C401.179,45.876,334.359,0.003,255.98,0v101.329
	c55.478,0.004,100.593,43.67,100.595,99.15c0,54.805-45.491,102.048-100.595,102.052V512
	c70.646-73.617,151.953-154.542,187.529-251.428C461.298,212.121,457.979,156.5,434.439,110.654z"/>
<path style="fill:#979797;" d="M68.492,260.572C104.067,357.458,185.374,438.383,256.02,512V302.531
	c-55.103-0.004-100.595-47.247-100.595-102.052c0.002-55.479,45.117-99.146,100.595-99.15V0
	c-78.379,0.003-145.199,45.876-178.46,110.654C54.021,156.5,50.702,212.121,68.492,260.572z"/>
<circle style="fill:#F0F0F0;" cx="256" cy="198.773" r="160"/>
<g>
	<path style="fill:#338AF3;" d="M256,358.773c63.434,0,118.243-36.916,144.124-90.435H111.876
		C137.758,321.856,192.566,358.773,256,358.773z"/>
	<path style="fill:#338AF3;" d="M256,38.773c-63.434,0-118.242,36.914-144.124,90.433h288.247
		C374.243,75.687,319.434,38.773,256,38.773z"/>
	<polygon style="fill:#338AF3;" points="194.465,143.121 199.646,159.065 216.41,159.065 202.847,168.916 208.028,184.859 
		194.465,175.006 180.903,184.859 186.083,168.916 172.522,159.065 189.284,159.065 	"/>
	<polygon style="fill:#338AF3;" points="194.465,212.686 199.646,228.629 216.41,228.629 202.847,238.481 208.028,254.425 
		194.465,244.571 180.903,254.425 186.083,238.481 172.522,228.629 189.284,228.629 	"/>
	<polygon style="fill:#338AF3;" points="317.535,143.121 322.716,159.065 339.478,159.065 325.917,168.916 331.097,184.859 
		317.535,175.006 303.972,184.859 309.153,168.916 295.59,159.065 312.354,159.065 	"/>
	<polygon style="fill:#338AF3;" points="317.535,212.686 322.716,228.629 339.478,228.629 325.917,238.481 331.097,254.425 
		317.535,244.571 303.972,254.425 309.153,238.481 295.59,228.629 312.354,228.629 	"/>
	<polygon style="fill:#338AF3;" points="256,177.902 261.181,193.845 277.943,193.845 264.382,203.7 269.563,219.642 256,209.79 
		242.437,219.642 247.618,203.7 234.057,193.845 250.82,193.845 	"/>
</g>
<path style="fill:#C7C7C7;" d="M255.929,21.707c-73.745,0-141.451,47.552-166.61,116.806
	c-25.343,69.773-3.142,149.836,53.974,197.071c57.236,47.338,140.369,53.625,203.978,15.148
	c63.626-38.49,97.228-114.681,82.271-187.573C414.889,91.771,355.517,35.121,283.472,23.843
	C274.361,22.416,265.141,21.707,255.929,21.707 M398.59,263.184c-30.241,67.009-105.732,104.802-177.479,88.399
	c-55.215-12.621-100.384-55.764-115.778-110.195c-15.749-55.658,1.328-116.804,43.417-156.425
	c45.534-42.867,114.172-54.571,171.321-28.799c68.228,30.767,105.971,108.144,87.651,180.844
	C405.459,245.986,402.37,254.739,398.59,263.184C396.502,267.81,400.132,259.739,398.59,263.184"/>
<g>
</g>
<g>
</g>
<g>
</g>
<g>
</g>
<g>
</g>
<g>
</g>
<g>
</g>
<g>
</g>
<g>
</g>
<g>
</g>
<g>
</g>
<g>
</g>
<g>
</g>
<g>
</g>
<g>
</g>
</svg>
