<?xml version="1.0" encoding="iso-8859-1"?>
<!-- Generator: Adobe Illustrator 19.0.0, SVG Export Plug-In . SVG Version: 6.00 Build 0)  -->
<svg version="1.1" id="Layer_1" xmlns="http://www.w3.org/2000/svg" xmlns:xlink="http://www.w3.org/1999/xlink" x="0px" y="0px"
	 viewBox="0 0 512 512" style="enable-background:new 0 0 512 512;" xml:space="preserve">
<path style="fill:#B3B3B3;" d="M434.439,110.654C401.179,45.876,334.359,0.003,255.98,0v101.329
	c55.478,0.004,100.593,43.673,100.595,99.151c0,54.805-45.491,102.048-100.595,102.051V512
	c70.646-73.617,151.953-154.542,187.529-251.428C461.298,212.121,457.979,156.5,434.439,110.654z"/>
<path style="fill:#979797;" d="M68.492,260.572C104.067,357.458,185.374,438.383,256.02,512V302.531
	c-55.103-0.003-100.595-47.246-100.595-102.051c0.002-55.478,45.117-99.147,100.595-99.151V0
	c-78.379,0.003-145.199,45.876-178.46,110.654C54.021,156.5,50.702,212.121,68.492,260.572z"/>
<path d="M369.137,311.909c-62.484,62.484-163.791,62.484-226.275,0c-62.483-62.484-62.483-163.791,0.001-226.274
	c62.483-62.484,153.952-52.645,216.435,9.839C421.783,157.957,431.621,249.425,369.137,311.909z"/>
<path style="fill:#A2001D;" d="M142.864,85.635c62.483-62.484,163.79-62.483,226.274,0.001c62.483,62.484,62.483,163.79,0,226.274"
	/>
<g>
	<polygon style="fill:#F0F0F0;" points="218.276,254.425 220.867,262.397 229.248,262.397 222.467,267.323 225.057,275.295 
		218.276,270.368 211.494,275.295 214.085,267.323 207.305,262.397 215.685,262.397 	"/>
	<polygon style="fill:#F0F0F0;" points="196.869,177.903 201.187,191.189 215.156,191.189 203.854,199.401 208.171,212.686 
		196.869,204.475 185.568,212.686 189.886,199.401 178.583,191.189 192.554,191.189 	"/>
	<polygon style="fill:#F0F0F0;" points="196.869,275.295 201.186,288.581 215.156,288.581 203.853,296.791 208.171,310.077 
		196.869,301.866 185.568,310.077 189.885,296.791 178.583,288.581 192.553,288.581 	"/>
	<polygon style="fill:#F0F0F0;" points="237.713,212.686 242.031,225.972 256,225.972 244.698,234.182 249.014,247.468 
		237.713,239.258 226.412,247.468 230.73,234.182 219.427,225.972 233.397,225.972 	"/>
	<polygon style="fill:#F0F0F0;" points="156.025,212.686 160.342,225.972 174.311,225.972 163.01,234.182 167.327,247.468 
		156.025,239.258 144.723,247.468 149.042,234.182 137.74,225.972 151.709,225.972 	"/>
</g>
<path style="fill:#FFDA44;" d="M363.843,157.248c-7.151-7.151-16.442-11.375-26.427-12.101l29.888-23.246
	c-11.903-11.904-27.856-17.279-43.425-16.142c-1.862-6.698-5.417-13.024-10.684-18.291l-11.806,23.612
	c-0.774-1.411-1.756-2.739-2.951-3.935c-6.791-6.791-17.803-6.791-24.595,0c-6.791,6.791-6.791,17.803,0,24.595
	c1.196,1.196,2.525,2.176,3.936,2.951l-23.612,11.806c5.268,5.268,11.599,8.823,18.3,10.687
	c-1.14,15.567,4.229,31.519,16.132,43.422l26.113-33.573c1.965-1.935,4.558-3.002,7.317-3.002c2.787,0,5.408,1.086,7.379,3.057
	c1.971,1.971,3.056,4.591,3.056,7.378s-1.086,5.408-3.056,7.378l9.838,9.838c4.599-4.599,7.132-10.714,7.132-17.216
	c0-5.322-1.696-10.38-4.831-14.562c4.566,1.219,8.882,3.609,12.458,7.184c10.85,10.849,10.85,28.502,0,39.351l9.839,9.839
	c7.884-7.884,12.225-18.366,12.225-29.514C376.069,175.614,371.727,165.132,363.843,157.248z"/>
<path style="fill:#C7C7C7;" d="M255.929,21.706c-73.745,0-141.451,47.553-166.61,116.807
	c-25.343,69.773-3.142,149.835,53.974,197.07c57.236,47.338,140.369,53.625,203.978,15.148
	c63.626-38.489,97.228-114.681,82.271-187.573C414.889,91.77,355.517,35.12,283.472,23.842
	C274.361,22.416,265.141,21.706,255.929,21.706 M398.59,263.184c-30.241,67.01-105.732,104.802-177.479,88.399
	c-55.215-12.621-100.384-55.764-115.778-110.195c-15.749-55.658,1.328-116.804,43.417-156.425
	c45.534-42.867,114.172-54.571,171.321-28.799c68.228,30.767,105.971,108.144,87.651,180.845
	C405.459,245.986,402.37,254.739,398.59,263.184C396.502,267.811,400.132,259.739,398.59,263.184"/>
<g>
</g>
<g>
</g>
<g>
</g>
<g>
</g>
<g>
</g>
<g>
</g>
<g>
</g>
<g>
</g>
<g>
</g>
<g>
</g>
<g>
</g>
<g>
</g>
<g>
</g>
<g>
</g>
<g>
</g>
</svg>
