<?xml version="1.0" encoding="iso-8859-1"?>
<!-- Generator: Adobe Illustrator 19.0.0, SVG Export Plug-In . SVG Version: 6.00 Build 0)  -->
<svg version="1.1" id="Layer_1" xmlns="http://www.w3.org/2000/svg" xmlns:xlink="http://www.w3.org/1999/xlink" x="0px" y="0px"
	 viewBox="0 0 512 512" style="enable-background:new 0 0 512 512;" xml:space="preserve">
<path style="fill:#B3B3B3;" d="M434.439,110.654C401.179,45.876,334.359,0.003,255.98,0v101.329
	c55.478,0.004,100.593,43.671,100.595,99.15c0,54.805-45.491,102.048-100.595,102.052V512
	c70.646-73.617,151.953-154.542,187.529-251.428C461.298,212.121,457.979,156.5,434.439,110.654z"/>
<path style="fill:#979797;" d="M68.492,260.572C104.067,357.458,185.374,438.383,256.02,512V302.531
	c-55.103-0.004-100.595-47.247-100.595-102.052c0.002-55.478,45.117-99.146,100.595-99.15V0
	c-78.379,0.003-145.199,45.876-178.46,110.654C54.021,156.5,50.702,212.121,68.492,260.572z"/>
<path style="fill:#F0F0F0;" d="M111.876,129.209C101.706,150.244,96,173.84,96,198.773c0,24.931,5.706,48.529,15.876,69.565
	L256,282.25l144.124-13.913C410.294,247.302,416,223.705,416,198.773c0-24.933-5.706-48.529-15.876-69.565L256,115.294
	L111.876,129.209z"/>
<path style="fill:#496E2D;" d="M111.882,268.337c25.878,53.519,80.685,90.436,144.118,90.436s118.24-36.916,144.118-90.435H111.882
	V268.337z"/>
<path d="M111.882,129.209h288.238C374.24,75.687,319.434,38.773,256,38.773S137.76,75.687,111.882,129.209z"/>
<g>
	<path style="fill:#D80027;" d="M142.863,85.635c-62.483,62.483-62.483,163.792,0,226.275
		C168.684,286.09,193.517,261.257,256,198.773L142.863,85.635z"/>
	<path style="fill:#D80027;" d="M297.74,198.773c0-23.311,16.383-42.785,38.26-47.563c-3.362-0.735-6.851-1.134-10.435-1.134
		c-26.894,0-48.694,21.801-48.694,48.695c0,26.894,21.802,48.695,48.694,48.695c3.584,0,7.073-0.398,10.435-1.134
		C314.123,241.558,297.74,222.083,297.74,198.773z"/>
	<polygon style="fill:#D80027;" points="338.046,167.469 344.955,188.727 367.305,188.727 349.221,201.865 356.129,223.121 
		338.046,209.983 319.965,223.121 326.871,201.865 308.787,188.727 331.138,188.727 	"/>
</g>
<path style="fill:#C7C7C7;" d="M255.929,21.707c-73.745,0-141.451,47.552-166.61,116.806
	c-25.343,69.773-3.142,149.836,53.974,197.071c57.236,47.338,140.369,53.625,203.978,15.148
	c63.626-38.49,97.228-114.681,82.271-187.573C414.889,91.771,355.517,35.121,283.472,23.843
	C274.361,22.416,265.141,21.707,255.929,21.707 M398.59,263.184c-30.241,67.009-105.732,104.802-177.479,88.399
	c-55.215-12.621-100.384-55.764-115.778-110.195c-15.749-55.658,1.328-116.804,43.417-156.425
	c45.534-42.867,114.172-54.571,171.321-28.799c68.228,30.767,105.971,108.144,87.651,180.844
	C405.459,245.986,402.37,254.739,398.59,263.184C396.502,267.81,400.132,259.739,398.59,263.184"/>
<g>
</g>
<g>
</g>
<g>
</g>
<g>
</g>
<g>
</g>
<g>
</g>
<g>
</g>
<g>
</g>
<g>
</g>
<g>
</g>
<g>
</g>
<g>
</g>
<g>
</g>
<g>
</g>
<g>
</g>
</svg>
