<?xml version="1.0" encoding="iso-8859-1"?>
<!-- Generator: Adobe Illustrator 19.0.0, SVG Export Plug-In . SVG Version: 6.00 Build 0)  -->
<svg version="1.1" id="Layer_1" xmlns="http://www.w3.org/2000/svg" xmlns:xlink="http://www.w3.org/1999/xlink" x="0px" y="0px"
	 viewBox="0 0 512 512" style="enable-background:new 0 0 512 512;" xml:space="preserve">
<path style="fill:#B3B3B3;" d="M434.439,110.654C401.178,45.876,334.359,0.003,255.98,0v101.329
	c55.478,0.004,100.593,43.671,100.595,99.15c0,54.805-45.491,102.048-100.595,102.052V512
	c70.646-73.617,151.953-154.542,187.529-251.428C461.298,212.121,457.979,156.5,434.439,110.654z"/>
<path style="fill:#979797;" d="M68.492,260.572C104.066,357.458,185.374,438.383,256.019,512V302.531
	c-55.104-0.004-100.595-47.247-100.594-102.052c0.001-55.478,45.116-99.146,100.594-99.15V0
	c-78.379,0.003-145.2,45.876-178.46,110.654C54.021,156.5,50.703,212.121,68.492,260.572z"/>
<circle style="fill:#F0F0F0;" cx="256" cy="198.773" r="160"/>
<path d="M403.518,136.743c-24.23-57.556-81.15-97.97-147.518-97.97c-44.183,0-84.179,17.914-113.132,46.868l40.068,51.102H403.518z"
	/>
<path style="fill:#496E2D;" d="M183.391,260.223l-40.523,51.682c28.953,28.957,68.948,46.868,113.132,46.868
	c66.591,0,123.674-40.684,147.765-98.55H183.391L183.391,260.223z"/>
<path style="fill:#A2001D;" d="M130.782,156.454v84.059h279.707c3.588-13.308,5.511-27.298,5.511-41.74
	c0-14.65-1.973-28.838-5.663-42.319H130.782z"/>
<path style="fill:#0052B4;" d="M142.862,85.635c-62.483,62.484-62.483,163.792,0,226.275
	C168.682,286.09,193.516,261.257,256,198.773L142.862,85.635z"/>
<polygon style="fill:#FFDA44;" points="148.116,158.994 167.645,186.244 199.599,176.091 179.717,203.087 199.246,230.338 
	167.428,219.771 147.545,246.767 147.764,213.239 115.945,202.671 147.897,192.518 "/>
<path style="fill:#C7C7C7;" d="M255.927,21.707c-73.745,0-141.451,47.552-166.61,116.806
	c-25.343,69.773-3.142,149.836,53.974,197.071c57.236,47.338,140.369,53.625,203.978,15.148
	c63.626-38.49,97.228-114.681,82.271-187.573C414.887,91.771,355.516,35.121,283.471,23.843
	C274.36,22.416,265.141,21.707,255.927,21.707 M398.59,263.184c-30.241,67.009-105.732,104.802-177.479,88.399
	c-55.215-12.621-100.384-55.764-115.778-110.195c-15.749-55.658,1.328-116.804,43.417-156.425
	c45.535-42.867,114.172-54.571,171.321-28.799c68.228,30.767,105.971,108.144,87.651,180.844
	C405.459,245.986,402.37,254.739,398.59,263.184C396.502,267.81,400.132,259.739,398.59,263.184"/>
<g>
</g>
<g>
</g>
<g>
</g>
<g>
</g>
<g>
</g>
<g>
</g>
<g>
</g>
<g>
</g>
<g>
</g>
<g>
</g>
<g>
</g>
<g>
</g>
<g>
</g>
<g>
</g>
<g>
</g>
</svg>
