<?xml version="1.0" encoding="iso-8859-1"?>
<!-- Generator: Adobe Illustrator 19.0.0, SVG Export Plug-In . SVG Version: 6.00 Build 0)  -->
<svg version="1.1" id="Layer_1" xmlns="http://www.w3.org/2000/svg" xmlns:xlink="http://www.w3.org/1999/xlink" x="0px" y="0px"
	 viewBox="0 0 512.744 512.744" style="enable-background:new 0 0 512.744 512.744;" xml:space="preserve">
<path style="fill:#B3B3B3;" d="M435.071,110.815C401.762,45.943,334.845,0.003,256.352,0v101.476
	c55.559,0.004,100.739,43.735,100.741,99.294c0,54.885-45.557,102.196-100.741,102.201v209.773
	C327.1,439.02,408.526,357.978,444.153,260.95C461.968,212.429,458.645,156.728,435.071,110.815z"/>
<path style="fill:#979797;" d="M68.591,260.95c35.627,97.027,117.053,178.07,187.801,251.794V302.971
	c-55.184-0.004-100.741-47.316-100.74-102.201c0.001-55.559,45.181-99.29,100.74-99.294V0
	c-78.493,0.003-145.41,45.943-178.719,110.815C54.1,156.728,50.776,212.429,68.591,260.95z"/>
<circle style="fill:#F0F0F0;" cx="256.37" cy="199.06" r="160.23"/>
<g>
	<path style="fill:#ACABB1;" d="M382.236,167.712h-52.714c0-9.618-7.799-17.417-17.417-17.417l-13.933,27.865
		c0,0,14.862,41.8,14.398,41.8h17.416c9.619,0,17.417-7.797,17.417-17.417c9.619,0,17.416-7.797,17.416-17.415h-0.58
		C373.858,185.129,382.236,177.33,382.236,167.712z"/>
	<path style="fill:#ACABB1;" d="M130.508,167.712h52.714c0-9.618,7.798-17.417,17.417-17.417l13.933,27.865
		c0,0-14.863,41.8-14.398,41.8h-17.416c-9.619,0-17.417-7.797-17.417-17.417c-9.619,0-17.416-7.797-17.416-17.415h0.58
		C138.887,185.129,130.508,177.33,130.508,167.712z"/>
</g>
<polygon style="fill:#FFDA44;" points="312.104,261.761 312.104,268.727 200.639,268.727 200.639,261.761 172.773,261.761 
	172.773,289.629 200.639,289.629 200.639,296.595 312.104,296.595 312.104,289.629 339.971,289.629 339.971,261.761 "/>
<path style="fill:#0052B4;" d="M200.639,150.295v69.666c0,42.662,55.733,55.733,55.733,55.733s55.733-13.071,55.733-55.733v-69.666
	l-55.733-6.966L200.639,150.295z"/>
<rect x="200.64" y="178.16" style="fill:#D80027;" width="111.47" height="41.8"/>
<polygon style="fill:#FFDA44;" points="284.238,115.461 284.238,125.912 277.272,129.396 270.305,122.427 270.305,101.529 
	242.439,101.529 242.439,122.427 235.472,129.396 228.506,125.912 228.506,115.461 200.639,115.461 200.639,150.295 
	312.104,150.295 312.104,115.461 "/>
<path style="fill:#C7C7C7;" d="M256.3,21.738c-73.852,0-141.656,47.621-166.852,116.976c-25.38,69.874-3.147,150.053,54.053,197.357
	c57.319,47.406,140.573,53.702,204.275,15.17c63.718-38.546,97.369-114.847,82.39-187.846
	C415.492,91.904,356.034,35.172,283.884,23.878C274.759,22.449,265.527,21.738,256.3,21.738 M399.168,263.566
	c-30.285,67.106-105.886,104.954-177.737,88.527c-55.295-12.639-100.53-55.845-115.946-110.355
	c-15.772-55.738,1.33-116.974,43.48-156.652c45.601-42.929,114.338-54.65,171.57-28.841
	c68.327,30.812,106.125,108.301,87.779,181.107C406.049,246.344,402.954,255.109,399.168,263.566
	C397.078,268.199,400.714,260.116,399.168,263.566"/>
<g>
</g>
<g>
</g>
<g>
</g>
<g>
</g>
<g>
</g>
<g>
</g>
<g>
</g>
<g>
</g>
<g>
</g>
<g>
</g>
<g>
</g>
<g>
</g>
<g>
</g>
<g>
</g>
<g>
</g>
</svg>
