<?xml version="1.0" encoding="iso-8859-1"?>
<!-- Generator: Adobe Illustrator 19.0.0, SVG Export Plug-In . SVG Version: 6.00 Build 0)  -->
<svg version="1.1" id="Layer_1" xmlns="http://www.w3.org/2000/svg" xmlns:xlink="http://www.w3.org/1999/xlink" x="0px" y="0px"
	 viewBox="0 0 512 512" style="enable-background:new 0 0 512 512;" xml:space="preserve">
<path style="fill:#B3B3B3;" d="M434.439,110.654C401.178,45.876,334.359,0.003,255.98,0v101.329
	c55.478,0.004,100.593,43.671,100.595,99.15c0,54.805-45.491,102.048-100.595,102.052V512
	c70.645-73.617,151.953-154.542,187.529-251.428C461.298,212.121,457.979,156.5,434.439,110.654z"/>
<path style="fill:#979797;" d="M68.492,260.572C104.066,357.458,185.374,438.383,256.019,512V302.531
	c-55.104-0.004-100.595-47.247-100.594-102.052c0.001-55.478,45.116-99.146,100.594-99.15V0
	c-78.379,0.003-145.2,45.876-178.46,110.654C54.021,156.5,50.703,212.121,68.492,260.572z"/>
<path style="fill:#338AF3;" d="M416,198.773c0,88.365-71.634,160-160,160c-88.365,0-160-71.635-160-160c0,0.037,160-159.983,160-160
	C344.366,38.773,416,110.406,416,198.773z"/>
<g>
	<polygon style="fill:#0052B4;" points="172.521,198.773 226.485,198.773 179.478,143.121 172.521,163.989 	"/>
	<polygon style="fill:#0052B4;" points="256,169.259 200.348,115.294 256,115.294 	"/>
</g>
<g>
	<path style="fill:#F0F0F0;" d="M256,38.773c-0.01,0-0.018,0-0.027,0H256L256,38.773z"/>
	<path style="fill:#F0F0F0;" d="M255.572,198.773H256c0-0.144,0-0.284,0-0.429C255.858,198.487,255.715,198.629,255.572,198.773z"/>
	<path style="fill:#F0F0F0;" d="M256,122.25c0-28.153,0-46.601,0-83.477h-0.027C167.619,38.787,96,110.417,96,198.773h83.478
		v-47.006l47.007,47.006h29.087c0.143-0.144,0.286-0.286,0.428-0.429c0-10.779,0-20.396,0-29.086l-47.008-47.008H256V122.25z"/>
</g>
<g>
	<path style="fill:#D80027;" d="M176.947,59.642c-25.024,14.25-45.828,35.054-60.077,60.077v79.054h41.74v-97.389v-0.002H256
		c0-13.165,0-25.707,0-41.74C256,59.642,176.947,59.642,176.947,59.642z"/>
	<path style="fill:#D80027;" d="M256,179.095l-56.846-56.846h-19.676v0.002l76.521,76.521H256C256,198.773,256,185.206,256,179.095z
		"/>
</g>
<g>
	<polygon style="fill:#FFDA44;" points="270.629,303.121 274.083,313.75 285.258,313.75 276.217,320.319 279.67,330.946 
		270.629,324.377 261.588,330.946 265.041,320.319 256,313.75 267.174,313.75 	"/>
	<polygon style="fill:#FFDA44;" points="359.631,233.554 363.085,244.183 374.26,244.183 365.219,250.752 368.674,261.381 
		359.631,254.813 350.592,261.381 354.045,250.752 345.003,244.183 356.178,244.183 	"/>
	<polygon style="fill:#FFDA44;" points="381.933,129.209 385.388,139.836 396.562,139.836 387.522,146.404 390.975,157.034 
		381.933,150.465 372.893,157.034 376.346,146.404 367.304,139.836 378.479,139.836 	"/>
	<polygon style="fill:#FFDA44;" points="387.458,205.729 390.911,216.358 402.087,216.358 393.045,222.927 396.5,233.554 
		387.458,226.988 378.416,233.554 381.871,222.927 372.829,216.358 384.004,216.358 	"/>
	<polygon style="fill:#FFDA44;" points="286.654,278.123 296.612,283.196 304.514,275.294 302.767,286.331 312.724,291.404 
		301.685,293.154 299.937,304.192 294.864,294.234 283.826,295.983 291.728,288.081 	"/>
	<polygon style="fill:#FFDA44;" points="286.654,236.383 296.612,241.458 304.514,233.554 302.767,244.592 312.724,249.667 
		301.685,251.414 299.937,262.452 294.864,252.494 283.826,254.244 291.728,246.341 	"/>
	<polygon style="fill:#FFDA44;" points="321.437,263.137 331.395,268.212 339.298,260.31 337.55,271.348 347.506,276.421 
		336.467,278.169 334.72,289.209 329.648,279.25 318.608,280.997 326.51,273.095 	"/>
	<polygon style="fill:#FFDA44;" points="321.437,173.775 331.395,178.848 339.298,170.946 337.55,181.983 347.506,187.056 
		336.467,188.806 334.72,199.844 329.648,189.886 318.608,191.635 326.51,183.733 	"/>
	<polygon style="fill:#FFDA44;" points="355.148,172.704 365.106,177.777 373.008,169.875 371.26,180.912 381.217,185.985 
		370.179,187.735 368.431,198.773 363.358,188.815 352.319,190.564 360.222,182.662 	"/>
</g>
<path style="fill:#C7C7C7;" d="M255.927,21.707c-73.745,0-141.451,47.552-166.61,116.806
	c-25.343,69.773-3.142,149.836,53.974,197.071c57.236,47.338,140.369,53.625,203.979,15.148
	c63.626-38.49,97.228-114.681,82.271-187.573C414.888,91.771,355.517,35.121,283.472,23.843
	C274.36,22.416,265.141,21.707,255.927,21.707 M398.59,263.184c-30.241,67.009-105.732,104.802-177.479,88.399
	c-55.215-12.621-100.384-55.764-115.778-110.195c-15.749-55.658,1.328-116.804,43.417-156.425
	c45.535-42.867,114.172-54.571,171.321-28.799c68.228,30.767,105.971,108.144,87.651,180.844
	C405.459,245.986,402.37,254.739,398.59,263.184C396.502,267.81,400.132,259.739,398.59,263.184"/>
<g>
</g>
<g>
</g>
<g>
</g>
<g>
</g>
<g>
</g>
<g>
</g>
<g>
</g>
<g>
</g>
<g>
</g>
<g>
</g>
<g>
</g>
<g>
</g>
<g>
</g>
<g>
</g>
<g>
</g>
</svg>
