<?xml version="1.0" encoding="iso-8859-1"?>
<!-- Generator: Adobe Illustrator 19.0.0, SVG Export Plug-In . SVG Version: 6.00 Build 0)  -->
<svg version="1.1" id="Layer_1" xmlns="http://www.w3.org/2000/svg" xmlns:xlink="http://www.w3.org/1999/xlink" x="0px" y="0px"
	 viewBox="0 0 512 512" style="enable-background:new 0 0 512 512;" xml:space="preserve">
<path style="fill:#B3B3B3;" d="M434.439,110.654C401.178,45.876,334.359,0.003,255.98,0v101.329
	c55.478,0.004,100.593,43.671,100.595,99.15c0,54.805-45.491,102.048-100.595,102.052V512
	c70.646-73.617,151.953-154.542,187.529-251.428C461.298,212.121,457.979,156.5,434.439,110.654z"/>
<path style="fill:#979797;" d="M68.492,260.572C104.066,357.458,185.374,438.383,256.019,512V302.531
	c-55.104-0.004-100.595-47.247-100.594-102.052c0.001-55.478,45.116-99.146,100.594-99.15V0
	c-78.379,0.003-145.2,45.876-178.46,110.654C54.021,156.5,50.703,212.121,68.492,260.572z"/>
<path style="fill:#0052B4;" d="M416,198.773c0,88.366-71.634,160-160,160s-160-71.634-160-160c0,0.037,160-159.982,160-160
	C344.366,38.773,416,110.407,416,198.773z"/>
<g>
	<path style="fill:#F0F0F0;" d="M256,38.773c-0.01,0-0.018,0-0.027,0H256L256,38.773z"/>
	<path style="fill:#F0F0F0;" d="M255.571,198.773H256c0-0.144,0-0.284,0-0.428C255.857,198.487,255.714,198.63,255.571,198.773z"/>
	<path style="fill:#F0F0F0;" d="M256,122.251c0-28.154,0-46.601,0-83.478h-0.027C167.619,38.787,96,110.417,96,198.773h83.478
		v-47.006l47.007,47.006h29.087c0.143-0.143,0.286-0.286,0.428-0.428c0-10.779,0-20.397,0-29.086l-47.008-47.008H256V122.251z"/>
</g>
<g>
	<path style="fill:#D80027;" d="M176.947,59.642c-25.025,14.25-45.828,35.054-60.077,60.078v79.053h41.739v-97.389v-0.002H256
		c0-13.165,0-25.707,0-41.74C256,59.642,176.947,59.642,176.947,59.642z"/>
	<path style="fill:#D80027;" d="M256,179.097l-56.847-56.846h-19.676v0.001l76.521,76.521H256C256,198.773,256,185.206,256,179.097z
		"/>
</g>
<path style="fill:#FFDA44;" d="M276.869,122.251v76.521c0,37.276,48.695,48.697,48.695,48.697s48.695-11.421,48.695-48.697v-76.521
	H276.869z"/>
<path style="fill:#FF9811;" d="M318.609,150.077c0,7.684-6.229,27.826-13.913,27.826c-7.684,0-13.913-20.142-13.913-27.826
	c0-7.683,13.913-13.913,13.913-13.913S318.609,142.394,318.609,150.077z"/>
<path style="fill:#A2001D;" d="M355.528,165.231c2.244-5.479,3.991-13.487,3.991-17.473c0-6.403-8.348-11.594-8.348-11.594
	s-8.348,5.19-8.348,11.594c0,3.986,1.746,11.994,3.991,17.473l-4.819,10.881c2.833,1.151,5.93,1.791,9.177,1.791
	c3.247,0,6.343-0.64,9.177-1.791L355.528,165.231z"/>
<path style="fill:#6DA544;" d="M315.129,198.773c0,0-6.956,13.913-6.956,27.826c0,0,20.869,0,34.782,0
	c0-13.914-6.956-27.826-6.956-27.826l-10.435-6.956L315.129,198.773z"/>
<path style="fill:#D80027;" d="M336,198.773v-3.478c0-5.763-4.672-10.434-10.435-10.434s-10.435,4.671-10.435,10.434v3.478H336z"/>
<path style="fill:#C7C7C7;" d="M255.927,21.707c-73.745,0-141.451,47.552-166.61,116.806
	c-25.343,69.773-3.142,149.836,53.974,197.071c57.236,47.338,140.369,53.625,203.978,15.148
	c63.626-38.49,97.228-114.681,82.271-187.573C414.887,91.771,355.516,35.121,283.471,23.843
	C274.36,22.416,265.141,21.707,255.927,21.707 M398.59,263.184c-30.241,67.009-105.732,104.802-177.479,88.399
	c-55.215-12.621-100.384-55.764-115.778-110.195c-15.749-55.658,1.328-116.804,43.417-156.425
	c45.535-42.867,114.172-54.571,171.321-28.799c68.228,30.767,105.971,108.144,87.651,180.844
	C405.459,245.986,402.37,254.739,398.59,263.184C396.502,267.81,400.132,259.739,398.59,263.184"/>
<g>
</g>
<g>
</g>
<g>
</g>
<g>
</g>
<g>
</g>
<g>
</g>
<g>
</g>
<g>
</g>
<g>
</g>
<g>
</g>
<g>
</g>
<g>
</g>
<g>
</g>
<g>
</g>
<g>
</g>
</svg>
