<?xml version="1.0" encoding="iso-8859-1"?>
<!-- Generator: Adobe Illustrator 19.0.0, SVG Export Plug-In . SVG Version: 6.00 Build 0)  -->
<svg version="1.1" id="Layer_1" xmlns="http://www.w3.org/2000/svg" xmlns:xlink="http://www.w3.org/1999/xlink" x="0px" y="0px"
	 viewBox="0 0 512 512" style="enable-background:new 0 0 512 512;" xml:space="preserve">
<path style="fill:#B3B3B3;" d="M434.439,110.654C401.179,45.876,334.359,0.003,255.98,0v101.329
	c55.478,0.004,100.593,43.671,100.595,99.151c0,54.805-45.491,102.048-100.595,102.051V512
	c70.646-73.617,151.953-154.542,187.529-251.428C461.298,212.121,457.979,156.5,434.439,110.654z"/>
<path style="fill:#979797;" d="M68.492,260.572C104.067,357.458,185.374,438.383,256.02,512V302.531
	c-55.103-0.003-100.595-47.247-100.595-102.051c0.002-55.478,45.117-99.147,100.595-99.151V0
	c-78.379,0.003-145.199,45.876-178.46,110.654C54.021,156.5,50.702,212.121,68.492,260.572z"/>
<circle style="fill:#F0F0F0;" cx="256" cy="198.773" r="160"/>
<path style="fill:#0052B4;" d="M409.043,198.772l5.599-20.869c-0.93-7.114-2.325-14.08-4.155-20.869h-168.4V39.381
	c-7.1,0.611-14.066,1.692-20.87,3.2l-27.825,17.06l-13.914-1.404c-7.322,3.995-14.297,8.544-20.869,13.595v85.201h-57.098
	c-1.829,6.789-3.223,13.756-4.155,20.869l5.599,20.869l-5.599,20.87c0.93,7.113,2.325,14.08,4.155,20.869h57.097v85.201
	c6.573,5.05,13.548,9.6,20.869,13.595l20.87-1.405l20.868,17.061c6.805,1.508,13.771,2.589,20.87,3.2V240.512h168.401
	c1.829-6.789,3.223-13.757,4.155-20.869L409.043,198.772z"/>
<path style="fill:#D80027;" d="M414.645,177.903H221.219h-0.002V42.576c-14.785,3.278-28.804,8.594-41.739,15.651v119.676l0,0
	H97.355C96.465,184.735,96,191.699,96,198.772s0.465,14.038,1.355,20.87h82.123h0.001v119.675
	c12.934,7.058,26.954,12.373,41.739,15.651V219.644v-0.001h193.429c0.89-6.832,1.355-13.796,1.355-20.87
	C416,191.699,415.536,184.735,414.645,177.903z"/>
<path style="fill:#C7C7C7;" d="M255.929,21.706c-73.745,0-141.451,47.553-166.61,116.807
	c-25.343,69.773-3.142,149.835,53.974,197.07c57.236,47.338,140.369,53.625,203.978,15.148
	c63.626-38.489,97.228-114.681,82.271-187.573C414.889,91.77,355.517,35.12,283.472,23.842
	C274.361,22.416,265.141,21.706,255.929,21.706 M398.59,263.184c-30.241,67.01-105.732,104.802-177.479,88.399
	c-55.215-12.621-100.384-55.764-115.778-110.195c-15.749-55.658,1.328-116.804,43.417-156.425
	c45.534-42.867,114.172-54.571,171.321-28.799c68.228,30.767,105.971,108.144,87.651,180.845
	C405.459,245.986,402.37,254.739,398.59,263.184C396.502,267.811,400.132,259.739,398.59,263.184"/>
<g>
</g>
<g>
</g>
<g>
</g>
<g>
</g>
<g>
</g>
<g>
</g>
<g>
</g>
<g>
</g>
<g>
</g>
<g>
</g>
<g>
</g>
<g>
</g>
<g>
</g>
<g>
</g>
<g>
</g>
</svg>
