<?xml version="1.0" encoding="iso-8859-1"?>
<!-- Generator: Adobe Illustrator 19.0.0, SVG Export Plug-In . SVG Version: 6.00 Build 0)  -->
<svg version="1.1" id="Layer_1" xmlns="http://www.w3.org/2000/svg" xmlns:xlink="http://www.w3.org/1999/xlink" x="0px" y="0px"
	 viewBox="0 0 512 512" style="enable-background:new 0 0 512 512;" xml:space="preserve">
<path style="fill:#B3B3B3;" d="M434.439,110.654C401.178,45.876,334.359,0.003,255.98,0v101.329
	c55.478,0.004,100.593,43.671,100.595,99.15c0,54.805-45.491,102.048-100.595,102.052V512
	c70.645-73.617,151.953-154.542,187.529-251.428C461.298,212.121,457.979,156.5,434.439,110.654z"/>
<path style="fill:#979797;" d="M68.492,260.572C104.066,357.458,185.374,438.383,256.019,512V302.531
	c-55.104-0.004-100.595-47.247-100.594-102.052c0.001-55.478,45.116-99.146,100.594-99.15V0
	c-78.379,0.003-145.2,45.876-178.46,110.654C54.021,156.5,50.703,212.121,68.492,260.572z"/>
<circle style="fill:#D80027;" cx="256" cy="198.773" r="160"/>
<polygon style="fill:#FFDA44;" points="334.248,198.773 302.276,213.81 319.302,244.778 284.581,238.135 280.183,273.206 
	256,247.414 231.816,273.206 227.417,238.135 192.7,244.778 209.725,213.81 177.751,198.773 209.726,183.735 192.7,152.767 
	227.416,159.41 231.817,124.337 256,150.131 280.185,124.337 284.581,159.41 319.303,152.767 302.277,183.735 "/>
<circle style="fill:#D80027;" cx="256" cy="198.773" r="48.695"/>
<g>
	<path style="fill:#FFDA44;" d="M231.652,198.773c-1.172,0-2.331,0.059-3.474,0.173c0.042,6.746,2.482,12.918,6.512,17.714
		c2.15-5.788,5.36-11.062,9.408-15.578C240.231,199.596,236.037,198.773,231.652,198.773z"/>
	<path style="fill:#FFDA44;" d="M246.64,224.981c2.925,1.044,6.075,1.617,9.359,1.617s6.434-0.573,9.359-1.617
		c-1.595-6.258-4.886-11.844-9.359-16.236C251.526,213.137,248.236,218.723,246.64,224.981z"/>
	<path style="fill:#FFDA44;" d="M280.097,184.863c-4.812-8.315-13.796-13.917-24.097-13.917c-10.3,0-19.285,5.602-24.097,13.917
		c8.772,0.046,16.996,2.431,24.097,6.548C263.1,187.294,271.325,184.909,280.097,184.863z"/>
	<path style="fill:#FFDA44;" d="M267.902,201.084c4.048,4.514,7.258,9.79,9.408,15.578c4.029-4.796,6.469-10.969,6.511-17.714
		c-1.142-0.114-2.301-0.173-3.474-0.173C275.964,198.773,271.768,199.596,267.902,201.084z"/>
</g>
<path style="fill:#C7C7C7;" d="M255.927,21.707c-73.745,0-141.451,47.552-166.61,116.806
	c-25.343,69.773-3.142,149.836,53.974,197.071c57.236,47.338,140.369,53.625,203.979,15.148
	c63.626-38.49,97.228-114.681,82.271-187.573C414.888,91.771,355.517,35.121,283.472,23.843
	C274.36,22.416,265.141,21.707,255.927,21.707 M398.59,263.184c-30.241,67.009-105.732,104.802-177.479,88.399
	c-55.215-12.621-100.384-55.764-115.778-110.195c-15.749-55.658,1.328-116.804,43.417-156.425
	c45.535-42.867,114.172-54.571,171.321-28.799c68.228,30.767,105.971,108.144,87.651,180.844
	C405.459,245.986,402.37,254.739,398.59,263.184C396.502,267.81,400.132,259.739,398.59,263.184"/>
<g>
</g>
<g>
</g>
<g>
</g>
<g>
</g>
<g>
</g>
<g>
</g>
<g>
</g>
<g>
</g>
<g>
</g>
<g>
</g>
<g>
</g>
<g>
</g>
<g>
</g>
<g>
</g>
<g>
</g>
</svg>
