<?xml version="1.0" encoding="iso-8859-1"?>
<!-- Generator: Adobe Illustrator 19.0.0, SVG Export Plug-In . SVG Version: 6.00 Build 0)  -->
<svg version="1.1" id="Layer_1" xmlns="http://www.w3.org/2000/svg" xmlns:xlink="http://www.w3.org/1999/xlink" x="0px" y="0px"
	 viewBox="0 0 512 512" style="enable-background:new 0 0 512 512;" xml:space="preserve">
<path style="fill:#B3B3B3;" d="M434.439,110.654C401.178,45.876,334.359,0.003,255.98,0v101.329
	c55.478,0.004,100.593,43.671,100.595,99.151c0,54.805-45.491,102.048-100.595,102.051V512
	c70.645-73.617,151.953-154.542,187.529-251.428C461.298,212.121,457.979,156.5,434.439,110.654z"/>
<path style="fill:#979797;" d="M68.492,260.572C104.066,357.458,185.374,438.383,256.019,512V302.531
	c-55.104-0.003-100.595-47.246-100.594-102.051c0.001-55.478,45.116-99.147,100.594-99.151V0
	c-78.379,0.003-145.2,45.876-178.46,110.654C54.021,156.5,50.703,212.121,68.492,260.572z"/>
<circle style="fill:#F0F0F0;" cx="256" cy="198.773" r="160"/>
<g>
	<path style="fill:#0052B4;" d="M414.629,177.902c-4.414-33.741-19.57-66.346-45.491-92.268
		c-25.922-25.922-58.527-41.078-92.268-45.492l0.001,137.759h137.758V177.902z"/>
	<path style="fill:#0052B4;" d="M235.129,40.143c-33.741,4.414-66.346,19.57-92.267,45.491
		c-25.921,25.922-41.078,58.527-45.492,92.269l137.76-0.001L235.129,40.143z"/>
	<path style="fill:#0052B4;" d="M97.37,219.643c4.414,33.742,19.571,66.346,45.491,92.268
		c25.922,25.921,58.527,41.077,92.268,45.492l-0.001-137.76L97.37,219.643z"/>
	<path style="fill:#0052B4;" d="M276.87,357.402c33.741-4.414,66.345-19.57,92.267-45.491
		c25.922-25.922,41.078-58.526,45.491-92.268H276.87V357.402z"/>
</g>
<g>
	<path style="fill:#F0F0F0;" d="M310.618,140.297c0-2.127,1.729-3.857,3.856-3.857h8.266c13.066,0,23.695-10.629,23.695-23.693
		c0-13.065-10.629-23.694-23.695-23.694h-7.849c-2.562-1.924-5.999-3.111-9.791-3.111c-7.908,0-14.319,5.129-14.319,11.455
		c0,6.266,6.288,11.347,14.091,11.446l-0.003,0.047h17.871c2.128,0,3.857,1.73,3.857,3.857s-1.729,3.857-3.857,3.857h-8.266
		c-13.065,0-23.693,10.629-23.693,23.693c0,13.065,10.628,23.693,23.693,23.693h31.961v-19.836h-31.961
		C312.348,144.154,310.618,142.423,310.618,140.297z"/>
	<path style="fill:#F0F0F0;" d="M185.4,140.297c0-2.127,1.729-3.857,3.857-3.857h8.265c13.066,0,23.695-10.629,23.695-23.693
		c0-13.065-10.629-23.694-23.695-23.694h-7.849c-2.562-1.924-5.999-3.111-9.79-3.111c-7.908,0-14.319,5.129-14.319,11.455
		c0,6.266,6.288,11.347,14.091,11.446l-0.003,0.047h17.871c2.128,0,3.857,1.73,3.857,3.857s-1.729,3.857-3.857,3.857h-8.265
		c-13.066,0-23.693,10.629-23.693,23.693c0,13.065,10.627,23.693,23.693,23.693h31.959v-19.836h-31.959
		C187.129,144.154,185.4,142.423,185.4,140.297z"/>
	<path style="fill:#F0F0F0;" d="M310.618,287.909c0-2.127,1.729-3.857,3.856-3.857h8.266c13.066,0,23.695-10.629,23.695-23.693
		c0-13.065-10.629-23.694-23.695-23.694h-7.849c-2.562-1.924-5.999-3.111-9.791-3.111c-7.908,0-14.319,5.129-14.319,11.455
		c0,6.265,6.288,11.347,14.091,11.446l-0.003,0.047h17.871c2.128,0,3.857,1.73,3.857,3.857c0,2.127-1.729,3.857-3.857,3.857h-8.266
		c-13.065,0-23.693,10.629-23.693,23.693c0,13.065,10.628,23.693,23.693,23.693h31.961v-19.836h-31.961
		C312.348,291.767,310.618,290.037,310.618,287.909z"/>
	<path style="fill:#F0F0F0;" d="M185.4,287.909c0-2.127,1.729-3.857,3.857-3.857h8.265c13.066,0,23.695-10.629,23.695-23.693
		c0-13.065-10.629-23.694-23.695-23.694h-7.849c-2.562-1.924-5.999-3.111-9.79-3.111c-7.908,0-14.319,5.129-14.319,11.455
		c0,6.265,6.288,11.347,14.091,11.446l-0.003,0.047h17.871c2.128,0,3.857,1.73,3.857,3.857c0,2.127-1.729,3.857-3.857,3.857h-8.265
		c-13.066,0-23.693,10.629-23.693,23.693c0,13.065,10.627,23.693,23.693,23.693h31.959v-19.836h-31.959
		C187.129,291.767,185.4,290.037,185.4,287.909z"/>
</g>
<path style="fill:#C7C7C7;" d="M255.927,21.706c-73.745,0-141.451,47.553-166.61,116.807
	c-25.343,69.773-3.142,149.835,53.974,197.07c57.236,47.338,140.369,53.625,203.979,15.148
	c63.626-38.489,97.228-114.681,82.271-187.573C414.888,91.77,355.517,35.12,283.472,23.842
	C274.36,22.416,265.141,21.706,255.927,21.706 M398.59,263.184c-30.241,67.01-105.732,104.802-177.479,88.399
	c-55.215-12.621-100.384-55.764-115.778-110.195c-15.749-55.658,1.328-116.804,43.417-156.425
	c45.535-42.867,114.172-54.571,171.321-28.799c68.228,30.767,105.971,108.144,87.651,180.845
	C405.459,245.986,402.37,254.739,398.59,263.184C396.502,267.811,400.132,259.739,398.59,263.184"/>
<g>
</g>
<g>
</g>
<g>
</g>
<g>
</g>
<g>
</g>
<g>
</g>
<g>
</g>
<g>
</g>
<g>
</g>
<g>
</g>
<g>
</g>
<g>
</g>
<g>
</g>
<g>
</g>
<g>
</g>
</svg>
