<?xml version="1.0" encoding="iso-8859-1"?>
<!-- Generator: Adobe Illustrator 19.0.0, SVG Export Plug-In . SVG Version: 6.00 Build 0)  -->
<svg version="1.1" id="Layer_1" xmlns="http://www.w3.org/2000/svg" xmlns:xlink="http://www.w3.org/1999/xlink" x="0px" y="0px"
	 viewBox="0 0 512 512" style="enable-background:new 0 0 512 512;" xml:space="preserve">
<path style="fill:#B3B3B3;" d="M434.439,110.654C401.178,45.876,334.359,0.003,255.98,0v101.329
	c55.478,0.004,100.593,43.671,100.595,99.151c0,54.805-45.491,102.048-100.595,102.051V512
	c70.645-73.617,151.953-154.542,187.529-251.428C461.298,212.121,457.979,156.5,434.439,110.654z"/>
<path style="fill:#979797;" d="M68.492,260.572C104.066,357.458,185.374,438.383,256.019,512V302.531
	c-55.104-0.003-100.595-47.246-100.594-102.051c0.001-55.478,45.116-99.147,100.594-99.151V0
	c-78.379,0.003-145.2,45.876-178.46,110.654C54.021,156.5,50.703,212.121,68.492,260.572z"/>
<path style="fill:#F0F0F0;" d="M256,38.772c-0.01,0-0.018,0-0.027,0H256L256,38.772z"/>
<path style="fill:#FFDA44;" d="M416,198.772c0,88.366-71.634,160-160,160s-160-71.634-160-160c0,0.038,160-159.982,160-160
	C344.366,38.772,416,110.406,416,198.772z"/>
<g>
	<polygon style="fill:#0052B4;" points="256,115.294 256,169.259 200.348,115.294 	"/>
	<polygon style="fill:#0052B4;" points="179.478,198.772 226.485,198.772 179.478,136.163 172.521,184.86 	"/>
</g>
<g>
	<path style="fill:#F0F0F0;" d="M255.571,198.772H256c0-0.144,0-0.284,0-0.428C255.857,198.486,255.714,198.629,255.571,198.772z"/>
	<path style="fill:#F0F0F0;" d="M256,122.251c0-28.153,0-46.601,0-83.478h-0.027C167.619,38.787,96,110.416,96,198.772h83.478
		v-47.007l47.007,47.007h29.086c0.143-0.143,0.286-0.286,0.428-0.428c0-10.779,0-20.398,0-29.086l-47.008-47.008
		C208.991,122.251,256,122.251,256,122.251z"/>
</g>
<g>
	<path style="fill:#D80027;" d="M256,179.097l-56.847-56.846h-19.676v0.001l76.521,76.521H256C256,198.772,256,185.205,256,179.097z
		"/>
	<path style="fill:#D80027;" d="M176.947,59.643c-6.167,3.511-12.077,7.426-17.697,11.7h6.564l-17.35,12.609l6.626,20.398
		l-17.351-12.608l-1.846,1.342c-7.204,8.181-13.593,17.099-19.022,26.636v79.053h41.739v-97.39v-0.001H256
		c0-13.165,0-25.706,0-41.739C256,59.643,176.947,59.643,176.947,59.643z"/>
</g>
<path style="fill:#0052B4;" d="M164.35,67.618c-1.726,1.209-3.427,2.45-5.103,3.725l-10.784,12.609l-10.725,7.791l-1.861,1.353
	c-3.93,4.463-7.614,9.145-11.033,14.028c3.898,1.891,8.271,2.955,12.894,2.955c16.329,0,29.565-13.236,29.565-29.565
	C167.304,75.889,166.241,71.515,164.35,67.618z"/>
<g>
	<path style="fill:#FFDA44;" d="M135.877,93.094l1.861-1.353l17.351,12.607l-6.626-20.398l17.35-12.609h-6.566
		C150.751,77.804,142.921,85.093,135.877,93.094z"/>
	<polygon style="fill:#FFDA44;" points="206.589,66.598 210.041,77.227 221.217,77.227 212.177,83.796 215.629,94.425 
		206.589,87.855 197.548,94.425 200.999,83.796 191.959,77.227 203.134,77.227 	"/>
	<polygon style="fill:#FFDA44;" points="137.738,136.163 141.192,146.793 152.368,146.793 143.328,153.361 146.78,163.989 
		137.738,157.42 128.698,163.989 132.15,153.361 123.11,146.793 134.285,146.793 	"/>
</g>
<path style="fill:#C7C7C7;" d="M255.927,21.706c-73.745,0-141.451,47.553-166.61,116.807
	c-25.343,69.773-3.142,149.835,53.974,197.07c57.236,47.338,140.369,53.625,203.979,15.148
	c63.626-38.489,97.228-114.681,82.271-187.573C414.888,91.77,355.517,35.12,283.472,23.842
	C274.36,22.416,265.141,21.706,255.927,21.706 M398.59,263.184c-30.241,67.01-105.732,104.802-177.479,88.399
	c-55.215-12.621-100.384-55.764-115.778-110.195c-15.749-55.658,1.328-116.804,43.417-156.425
	c45.535-42.867,114.172-54.571,171.321-28.799c68.228,30.767,105.971,108.144,87.651,180.845
	C405.459,245.986,402.37,254.739,398.59,263.184C396.502,267.811,400.132,259.739,398.59,263.184"/>
<g>
</g>
<g>
</g>
<g>
</g>
<g>
</g>
<g>
</g>
<g>
</g>
<g>
</g>
<g>
</g>
<g>
</g>
<g>
</g>
<g>
</g>
<g>
</g>
<g>
</g>
<g>
</g>
<g>
</g>
</svg>
