<?xml version="1.0" encoding="iso-8859-1"?>
<!-- Generator: Adobe Illustrator 19.0.0, SVG Export Plug-In . SVG Version: 6.00 Build 0)  -->
<svg version="1.1" id="Layer_1" xmlns="http://www.w3.org/2000/svg" xmlns:xlink="http://www.w3.org/1999/xlink" x="0px" y="0px"
	 viewBox="0 0 512 512" style="enable-background:new 0 0 512 512;" xml:space="preserve">
<path style="fill:#B3B3B3;" d="M434.439,110.654C401.18,45.876,334.358,0.003,255.98,0v101.329
	c55.478,0.004,100.593,43.671,100.595,99.15c0,54.805-45.491,102.048-100.595,102.052V512
	c70.645-73.617,151.954-154.542,187.529-251.428C461.298,212.121,457.98,156.5,434.439,110.654z"/>
<path style="fill:#979797;" d="M68.491,260.572C104.066,357.458,185.374,438.383,256.019,512V302.531
	c-55.104-0.004-100.595-47.247-100.594-102.052c0.001-55.478,45.116-99.146,100.594-99.15V0
	c-78.379,0.003-145.2,45.876-178.46,110.654C54.021,156.5,50.702,212.121,68.491,260.572z"/>
<circle style="fill:#F0F0F0;" cx="256.715" cy="198.773" r="160"/>
<path style="fill:#A2001D;" d="M406.758,143.121H106.661c-6.431,17.333-9.951,36.081-9.951,55.652
	c0,19.571,3.52,38.319,9.951,55.652h300.097c6.431-17.333,9.952-36.081,9.952-55.652S413.189,160.454,406.758,143.121z"/>
<g>
	<path style="fill:#6DA544;" d="M257.174,358.773c54.801,0,103.161-27.558,131.997-69.565H125.177
		C154.013,331.215,202.371,358.773,257.174,358.773z"/>
	<path style="fill:#6DA544;" d="M257.174,38.775c54.801,0,103.161,27.556,131.997,69.565H125.177
		C154.013,66.332,202.371,38.775,257.174,38.775z"/>
</g>
<polygon style="fill:#FFDA44;" points="256.71,143.121 270.524,185.633 315.227,185.633 279.061,211.91 292.876,254.425 
	256.71,228.15 220.545,254.425 234.359,211.91 198.194,185.633 242.897,185.633 "/>
<path style="fill:#C7C7C7;" d="M255.927,21.707c-73.745,0-141.451,47.552-166.61,116.806
	c-25.343,69.773-3.142,149.836,53.974,197.071c57.236,47.338,140.369,53.625,203.978,15.148
	c63.627-38.49,97.229-114.681,82.271-187.573C414.887,91.771,355.515,35.121,283.471,23.843
	C274.361,22.416,265.141,21.707,255.927,21.707 M398.59,263.184c-30.242,67.009-105.733,104.802-177.479,88.399
	c-55.215-12.621-100.384-55.764-115.778-110.195c-15.749-55.658,1.328-116.804,43.417-156.425
	c45.535-42.867,114.173-54.571,171.321-28.799c68.229,30.767,105.971,108.144,87.652,180.844
	C405.458,245.986,402.369,254.739,398.59,263.184C396.502,267.81,400.131,259.739,398.59,263.184"/>
<g>
</g>
<g>
</g>
<g>
</g>
<g>
</g>
<g>
</g>
<g>
</g>
<g>
</g>
<g>
</g>
<g>
</g>
<g>
</g>
<g>
</g>
<g>
</g>
<g>
</g>
<g>
</g>
<g>
</g>
</svg>
